<svg width="30" height="16" viewBox="0 0 30 16" fill="none" xmlns="http://www.w3.org/2000/svg">
<g clip-path="url(#clip0_26_29849)">
<path d="M17.5039 15.334C17.5039 14.9789 17.7971 14.6904 18.1806 14.6904C18.5641 14.6904 18.8573 14.9789 18.8573 15.334C18.8573 15.689 18.5641 15.9997 18.1806 15.9997C17.7971 15.9997 17.5039 15.7112 17.5039 15.334ZM17.6392 15.334C17.6392 15.6225 17.8874 15.8666 18.2032 15.8666C18.4964 15.8666 18.7445 15.6447 18.7445 15.334C18.7445 15.0455 18.4964 14.8236 18.2032 14.8236C17.8648 14.8236 17.6392 15.0677 17.6392 15.334Z" fill="#E31837"/>
<path d="M18.5188 15.7118H18.3835L18.1579 15.3789H18.0226V15.7118H17.9324V14.9795H18.2707C18.3384 14.9795 18.4061 14.9795 18.4512 15.0239C18.5188 15.0461 18.5414 15.1126 18.5414 15.1792C18.5414 15.3124 18.4286 15.3789 18.2933 15.3789L18.5188 15.7118ZM18.1579 15.2902C18.2707 15.2902 18.4061 15.3124 18.4061 15.1792C18.4061 15.0904 18.3158 15.0683 18.2256 15.0683H18.0226V15.2902H18.1579Z" fill="#E31837"/>
<path d="M14.9548 16C19.6916 12.0055 26.3458 8.12202 29.9999 6.72396C29.436 6.3689 28.5563 5.8585 27.5638 5.30371C22.8495 6.83492 17.3458 10.2302 12.4285 14.0693C13.2631 14.6907 14.1428 15.3342 14.9548 16Z" fill="#E31837"/>
<path d="M12.7894 5.14813C12.0902 4.81526 11.3233 4.50458 10.7368 4.23828C8.95486 5.10375 6.63155 6.41304 3.69922 8.47684C4.3308 8.80971 5.00749 9.20915 5.72929 9.6086C7.98493 7.96644 10.2631 6.41304 12.7894 5.14813Z" fill="#012169"/>
<path d="M17.0075 3.24012C16.1503 2.7741 13.1729 1.68672 11.1203 1.2207C10.5112 1.44262 9.65409 1.77549 9.06763 2.01959C9.81199 2.21932 12.5864 2.95163 14.9548 4.12778C15.5639 3.83929 16.421 3.48423 17.0075 3.24012Z" fill="#E31837"/>
<path d="M6.92481 2.95117C4.28571 4.14951 1.51128 5.79167 0 6.7459C0.541353 6.99001 1.08271 7.18973 1.82707 7.54479C5.16541 5.32565 7.78195 3.97198 8.81955 3.52815C8.07519 3.26185 7.37594 3.08432 6.92481 2.95117Z" fill="#012169"/>
<path d="M18.9924 2.55201C19.6014 2.35229 20.3006 2.17476 20.9097 1.99723C19.1503 1.26491 16.9397 0.488211 14.9548 0C14.639 0.0887656 13.6916 0.332871 13.0375 0.532594C13.7142 0.732316 15.9473 1.24272 18.9924 2.55201ZM7.87207 10.896C8.59387 11.3176 9.36079 11.8946 10.1052 12.3828C15.045 8.61026 19.9172 5.70319 25.263 4.06103C24.5187 3.68377 23.8646 3.3509 23.03 2.95146C19.827 3.75035 14.3458 5.90291 7.87207 10.896Z" fill="#E31837"/>
</g>
<defs>
<clipPath id="clip0_26_29849">
<rect width="30" height="16" fill="white"/>
</clipPath>
</defs>
</svg>
