<svg width="20" height="20" viewBox="0 0 20 20" fill="none" xmlns="http://www.w3.org/2000/svg">
<path d="M15.8333 5.72702C16.0885 5.87435 16.3001 6.08671 16.4465 6.34245C16.5929 6.5982 16.6688 6.88818 16.6666 7.18285V12.6295C16.6666 12.9267 16.587 13.2185 16.4363 13.4746C16.2855 13.7307 16.069 13.9419 15.8091 14.0862L10.8091 17.2804C10.5616 17.4178 10.2831 17.49 9.99998 17.49C9.71683 17.49 9.43835 17.4178 9.19081 17.2804L4.19081 14.0862C3.93111 13.942 3.71467 13.7309 3.56391 13.475C3.41314 13.219 3.33353 12.9274 3.33331 12.6304V7.18285C3.33338 6.88565 3.41293 6.59387 3.5637 6.33775C3.71447 6.08162 3.93099 5.87048 4.19081 5.72618L9.19081 2.74952C9.44565 2.60766 9.73249 2.5332 10.0241 2.5332C10.3158 2.5332 10.6026 2.60766 10.8575 2.74952L15.8575 5.72702H15.8333V5.72702Z" stroke="#16D4E9" stroke-opacity="0.91" stroke-width="1.5" stroke-linecap="round" stroke-linejoin="round"/>
<path d="M12.9166 7.85125C13.1766 8.00125 13.3358 8.28042 13.3333 8.58125V11.3121C13.3333 11.6154 13.1691 11.8954 12.9041 12.0429L10.4041 13.6446C10.2805 13.7134 10.1414 13.7495 9.99996 13.7495C9.8585 13.7495 9.71939 13.7134 9.59579 13.6446L7.09579 12.0429C6.96573 11.9705 6.85737 11.8646 6.78192 11.7363C6.70647 11.608 6.66667 11.4618 6.66663 11.3129V8.58125C6.66663 8.27792 6.83079 7.99792 7.09496 7.85042L9.59496 6.35875C9.85413 6.21375 10.17 6.21375 10.4283 6.35875L12.9283 7.85042H12.9166V7.85125Z" stroke="#16D4E9" stroke-opacity="0.91" stroke-width="1.5" stroke-linecap="round" stroke-linejoin="round"/>
</svg>
