<svg width="14" height="14" viewBox="0 0 14 14" fill="none" xmlns="http://www.w3.org/2000/svg">
<path d="M6.99992 12.2498C7.64425 12.2498 8.16659 11.7275 8.16659 11.0832C8.16659 10.4388 7.64425 9.9165 6.99992 9.9165C6.35559 9.9165 5.83325 10.4388 5.83325 11.0832C5.83325 11.7275 6.35559 12.2498 6.99992 12.2498Z" stroke="#9CA3AF" stroke-linecap="round" stroke-linejoin="round"/>
<path d="M6.99992 9.91683V3.2085M4.08325 5.8335V7.5835L6.99992 9.3335M6.99992 8.4585L9.91659 7.29183V5.8335M9.33325 5.8335H10.4999V4.66683H9.33325V5.8335Z" stroke="#9CA3AF" stroke-linecap="round" stroke-linejoin="round"/>
<path d="M4.08333 5.83317C4.4055 5.83317 4.66667 5.572 4.66667 5.24984C4.66667 4.92767 4.4055 4.6665 4.08333 4.6665C3.76117 4.6665 3.5 4.92767 3.5 5.24984C3.5 5.572 3.76117 5.83317 4.08333 5.83317Z" stroke="#9CA3AF" stroke-linecap="round" stroke-linejoin="round"/>
<path d="M5.83325 3.20833H8.16659L6.99992 1.75L5.83325 3.20833Z" stroke="#9CA3AF" stroke-linecap="round" stroke-linejoin="round"/>
</svg>
