<svg width="20" height="20" viewBox="0 0 20 20" fill="none" xmlns="http://www.w3.org/2000/svg">
<path d="M4.16667 9.1665C4.60869 9.1665 5.03262 9.3421 5.34518 9.65466C5.65774 9.96722 5.83333 10.3911 5.83333 10.8332V12.4998H14.1667V10.8332C14.1667 10.3911 14.3423 9.96722 14.6548 9.65466C14.9674 9.3421 15.3913 9.1665 15.8333 9.1665C16.2754 9.1665 16.6993 9.3421 17.0118 9.65466C17.3244 9.96722 17.5 10.3911 17.5 10.8332V14.1665C17.5 14.6085 17.3244 15.0325 17.0118 15.345C16.6993 15.6576 16.2754 15.8332 15.8333 15.8332H4.16667C3.72464 15.8332 3.30072 15.6576 2.98816 15.345C2.67559 15.0325 2.5 14.6085 2.5 14.1665V10.8332C2.5 10.3911 2.67559 9.96722 2.98816 9.65466C3.30072 9.3421 3.72464 9.1665 4.16667 9.1665V9.1665Z" stroke="#6B7280" stroke-width="1.5" stroke-linecap="round" stroke-linejoin="round"/>
<path d="M4.16669 9.16667V5C4.16669 4.33696 4.43008 3.70107 4.89892 3.23223C5.36776 2.76339 6.00365 2.5 6.66669 2.5H13.3334C13.9964 2.5 14.6323 2.76339 15.1011 3.23223C15.57 3.70107 15.8334 4.33696 15.8334 5V9.16667M5.00002 15.8333V17.5M15 15.8333V17.5" stroke="#6B7280" stroke-width="1.5" stroke-linecap="round" stroke-linejoin="round"/>
</svg>
