<svg width="25" height="16" viewBox="0 0 25 16" fill="none" xmlns="http://www.w3.org/2000/svg">
<g clip-path="url(#clip0_26_30018)">
<path d="M7.68766 12.7977C6.9082 13.5656 6.12875 13.9146 5.27844 13.9146C3.50696 13.9146 2.23149 12.5883 2.23149 10.7734C2.23149 8.95845 3.50696 7.63216 5.27844 7.63216C6.12875 7.63216 6.97906 7.98118 7.68766 8.74904V8.81884L8.8214 7.49255V7.42274C7.82937 6.37567 6.69563 5.81723 5.27844 5.81723C3.86125 5.81723 2.58579 6.30587 1.66462 7.14352C0.672587 8.05099 0.105713 9.30748 0.105713 10.8432C0.105713 12.3789 0.601728 13.6354 1.66462 14.5428C2.58579 15.3805 3.86125 15.8691 5.27844 15.8691C6.69563 15.8691 7.82937 15.3107 8.75054 14.1938L7.68766 12.7977Z" fill="#004685"/>
<path d="M10.0139 15.6201H11.998V5.91723H10.0139V15.6201Z" fill="#004685"/>
<path d="M19.8827 13.5416C19.3158 13.8907 18.8198 14.0303 18.3947 14.0303C17.7569 14.0303 17.4735 13.6812 17.4735 12.9134V7.74782H19.5284V5.9329H17.4735V2.93128L15.4894 3.97836V5.9329H13.7888V7.81763H15.4894V13.2624C15.4894 14.7283 16.4106 15.7754 17.7569 15.7754C18.6781 15.7754 19.245 15.4962 19.5284 15.3566L20.0244 13.4718L19.8827 13.5416Z" fill="#004685"/>
<path d="M21.5642 15.6201H23.5483V5.91723H21.5642V15.6201Z" fill="#004685"/>
<path d="M24.7413 4.26273C22.899 1.67995 19.852 0.144243 16.7342 0.144243C13.6164 0.144243 10.5695 1.67995 8.72711 4.26273L8.65625 4.40234H10.9946C12.5535 2.79683 14.6084 1.95917 16.7342 1.95917C18.86 1.95917 20.9149 2.79683 22.4738 4.40234H24.8122L24.7413 4.26273Z" fill="#EE1C25"/>
</g>
<defs>
<clipPath id="clip0_26_30018">
<rect width="25" height="16" fill="white"/>
</clipPath>
</defs>
</svg>
