<svg width="20" height="20" viewBox="0 0 20 20" fill="none" xmlns="http://www.w3.org/2000/svg">
<g clip-path="url(#clip0_26_31212)">
<path d="M14.7214 11.5556C14.7214 11.8393 14.7214 12.1229 14.7214 12.4065C12.0155 12.5096 9.43602 12.6901 9.43602 12.8706C9.43602 13.0511 11.9396 13.2316 14.6203 13.3347C14.5697 13.6441 14.5191 13.9535 14.4433 14.2629C11.8132 14.3661 9.36016 14.5466 9.36016 14.727C9.36016 14.9075 11.6362 15.0622 14.1904 15.1654C14.0639 15.5006 13.9375 15.81 13.7857 16.1194C11.6109 16.2225 9.81536 16.3772 9.81536 16.5319C9.81536 16.6866 11.3833 16.8155 13.3558 16.9187C13.2547 17.0991 13.1282 17.2796 13.0018 17.4601C12.8753 17.6406 12.7236 17.8211 12.5719 18.0016C11.3327 18.1047 10.4729 18.2078 10.4729 18.311C10.4729 18.4141 11.0798 18.5172 12.0155 18.5946C11.5097 19.1103 10.9028 19.6002 10.1947 20.0127C10.1947 20.0127 9.36016 19.265 8.65206 18.4141C8.04513 17.6406 6.73009 15.6295 6.42663 15.1654C6.12316 14.7013 5.92084 14.5723 5.54151 14.7013C5.06102 14.8817 4.50466 14.9591 4.32763 14.9591C4.15061 14.9591 4.04945 14.8817 4.35292 14.7786C4.6311 14.6497 5.7944 14.1082 6.35076 12.9738C6.98299 11.6846 6.42663 9.93128 6.42663 9.93128C6.22431 10.8853 5.74382 11.2205 5.74382 11.2205C5.89556 10.3438 5.71853 9.54452 5.31391 8.97728L5.08631 10.086C5.08631 10.086 4.93457 10.086 4.58053 10.3954C4.22648 10.7048 4.12532 11.1689 4.12532 11.1689C4.4035 11.2978 4.75755 10.9884 4.75755 10.9884C4.30234 12.6901 3.67012 14.0567 3.21492 14.7786C2.75971 15.5006 2.38037 15.7842 1.89988 15.9647C1.52055 16.1194 1.36881 15.9389 1.36881 15.9389C1.01477 15.6295 0.761874 15.3716 0.508984 15.0364C0.508984 15.0364 0.483694 15.0107 0.559561 15.0107C0.761874 15.0107 1.09063 14.6755 1.1665 14.5466C1.24237 14.3919 1.24237 14.2629 1.19179 14.2629C1.14121 14.2629 1.06534 14.3919 0.711297 14.6239C0.35725 14.856 0.180225 14.7013 0.0537798 14.5723C-0.0473764 14.4692 0.0537829 14.3403 0.104361 14.2629C0.154939 14.1856 2.1022 10.4985 7.21059 6.65675C13.9122 1.60315 18.2113 0.210831 18.4642 0.13348C18.616 0.0561275 18.8941 -0.0212231 18.9447 0.0561275C19.0206 0.133478 19.0459 0.185047 19.0459 0.262398C19.0459 0.339748 18.9953 0.391315 18.6918 0.520235C16.1123 1.6805 13.1029 3.61427 11.4086 4.72297C9.30958 5.75432 7.31174 7.24977 7.23588 7.30134C7.08414 7.40448 7.1853 7.55918 7.28645 7.48183C10.8269 5.08395 14.9996 3.43379 19.6022 2.09304C19.8298 2.04147 19.931 2.04147 19.9816 2.06726C20.0321 2.11882 20.0321 2.19617 20.0574 2.24774C20.0574 2.32509 19.9816 2.37666 19.8045 2.45401C14.8732 4.33622 11.2315 6.06372 8.87967 7.66231C8.87967 7.66231 8.62678 7.81701 8.62678 7.97172C8.62678 8.04907 8.75322 8.04907 8.75322 8.04907C9.91652 8.07485 11.4844 8.1522 12.2431 8.17799C12.2431 8.17799 12.142 8.56474 11.4339 8.87415C10.8775 9.1062 10.3717 9.08041 9.86594 9.08041C9.76478 9.08041 9.66363 9.18355 9.73949 9.31247C9.73949 9.38982 10.8016 11.1689 14.7214 11.5556Z" fill="#5C0632"/>
</g>
<defs>
<clipPath id="clip0_26_31212">
<rect width="20" height="20" fill="white"/>
</clipPath>
</defs>
</svg>
