<svg width="24" height="24" viewBox="0 0 24 24" fill="none" xmlns="http://www.w3.org/2000/svg">
<g filter="url(#filter0_b_0_1854)">
<path d="M12.62 20.81C12.28 20.93 11.72 20.93 11.38 20.81C8.48 19.82 2 15.69 2 8.68998C2 5.59998 4.49 3.09998 7.56 3.09998C9.38 3.09998 10.99 3.97998 12 5.33998C13.01 3.97998 14.63 3.09998 16.44 3.09998C19.51 3.09998 22 5.59998 22 8.68998C22 15.69 15.52 19.82 12.62 20.81Z" fill="#111827" fill-opacity="0.2"/>
<path d="M12.62 20.81C12.28 20.93 11.72 20.93 11.38 20.81C8.48 19.82 2 15.69 2 8.68998C2 5.59998 4.49 3.09998 7.56 3.09998C9.38 3.09998 10.99 3.97998 12 5.33998C13.01 3.97998 14.63 3.09998 16.44 3.09998C19.51 3.09998 22 5.59998 22 8.68998C22 15.69 15.52 19.82 12.62 20.81Z" stroke="white" stroke-width="1.5" stroke-linecap="round" stroke-linejoin="round"/>
</g>
<defs>
<filter id="filter0_b_0_1854" x="-2.75" y="-1.65002" width="29.5" height="27.3" filterUnits="userSpaceOnUse" color-interpolation-filters="sRGB">
<feFlood flood-opacity="0" result="BackgroundImageFix"/>
<feGaussianBlur in="BackgroundImageFix" stdDeviation="2"/>
<feComposite in2="SourceAlpha" operator="in" result="effect1_backgroundBlur_0_1854"/>
<feBlend mode="normal" in="SourceGraphic" in2="effect1_backgroundBlur_0_1854" result="shape"/>
</filter>
</defs>
</svg>
