<svg width="26" height="20" viewBox="0 0 26 20" fill="none" xmlns="http://www.w3.org/2000/svg">
<g clip-path="url(#clip0_0_1209)">
<path d="M4.72829 19.9007V18.577C4.72829 18.0695 4.41614 17.7386 3.8811 17.7386C3.61364 17.7386 3.32383 17.8268 3.12318 18.1137C2.96721 17.871 2.74432 17.7386 2.40994 17.7386C2.18695 17.7386 1.96416 17.8047 1.78574 18.0475V17.7827H1.31763V19.9007H1.78574V18.7314C1.78574 18.3564 1.9864 18.1798 2.29854 18.1798C2.61049 18.1798 2.76666 18.3784 2.76666 18.7314V19.9007H3.23478V18.7314C3.23478 18.3564 3.45757 18.1798 3.74737 18.1798C4.05952 18.1798 4.21549 18.3784 4.21549 18.7314V19.9007H4.72829ZM11.6608 17.7827H10.903V17.1429H10.4349V17.7827H10.0113V18.2018H10.4348V19.1727C10.4348 19.6581 10.6354 19.9448 11.1704 19.9448C11.3711 19.9448 11.5939 19.8787 11.7501 19.7905L11.6162 19.3933C11.4825 19.4815 11.3265 19.5036 11.215 19.5036C10.9921 19.5036 10.903 19.3713 10.903 19.1506V18.2018H11.6608V17.7827ZM15.6287 17.7385C15.3613 17.7385 15.183 17.871 15.0715 18.0475V17.7827H14.6033V19.9007H15.0715V18.7094C15.0715 18.3564 15.2274 18.1578 15.5172 18.1578C15.6064 18.1578 15.7179 18.1799 15.807 18.2019L15.9408 17.7607C15.8516 17.7386 15.7179 17.7386 15.6287 17.7386V17.7385ZM9.63235 17.9592C9.40936 17.8047 9.09732 17.7386 8.76293 17.7386C8.228 17.7386 7.87138 18.0033 7.87138 18.4225C7.87138 18.7756 8.13884 18.9741 8.60696 19.0403L8.82985 19.0624C9.07508 19.1064 9.20881 19.1727 9.20881 19.283C9.20881 19.4374 9.0305 19.5478 8.71836 19.5478C8.40631 19.5478 8.16108 19.4374 8.00501 19.3272L7.78212 19.6801C8.02735 19.8566 8.36173 19.9448 8.69602 19.9448C9.32021 19.9448 9.67693 19.6581 9.67693 19.2609C9.67693 18.8858 9.38712 18.6873 8.94125 18.6211L8.71836 18.599C8.51771 18.5769 8.36173 18.5329 8.36173 18.4005C8.36173 18.246 8.51771 18.1578 8.76293 18.1578C9.0305 18.1578 9.29797 18.2681 9.4317 18.3343L9.63235 17.9592ZM22.071 17.7386C21.8034 17.7386 21.6251 17.871 21.5136 18.0475V17.7827H21.0455V19.9007H21.5136V18.7094C21.5136 18.3564 21.6697 18.1578 21.9594 18.1578C22.0486 18.1578 22.1601 18.1799 22.2493 18.2019L22.383 17.7607C22.2939 17.7386 22.1601 17.7386 22.071 17.7386ZM16.0968 18.8417C16.0968 19.4815 16.5426 19.9448 17.2337 19.9448C17.5458 19.9448 17.7687 19.8787 17.9916 19.7022L17.7687 19.3272C17.5904 19.4595 17.412 19.5256 17.2114 19.5256C16.8324 19.5256 16.565 19.2609 16.565 18.8417C16.565 18.4446 16.8324 18.1798 17.2114 18.1578C17.412 18.1578 17.5904 18.2239 17.7687 18.3564L17.9916 17.9813C17.7687 17.8047 17.5458 17.7386 17.2337 17.7386C16.5426 17.7386 16.0968 18.2019 16.0968 18.8417ZM20.4214 18.8417V17.7827H19.9533V18.0475C19.7972 17.849 19.5743 17.7386 19.2845 17.7386C18.6827 17.7386 18.2145 18.2019 18.2145 18.8417C18.2145 19.4815 18.6827 19.9448 19.2845 19.9448C19.5966 19.9448 19.8196 19.8346 19.9533 19.636V19.9007H20.4214V18.8417ZM18.7049 18.8417C18.7049 18.4666 18.9501 18.1578 19.3513 18.1578C19.7303 18.1578 19.9979 18.4446 19.9979 18.8417C19.9979 19.2168 19.7303 19.5256 19.3513 19.5256C18.9501 19.5035 18.7049 19.2168 18.7049 18.8417ZM13.1098 17.7386C12.4856 17.7386 12.0398 18.1798 12.0398 18.8417C12.0398 19.5036 12.4855 19.9448 13.1321 19.9448C13.4441 19.9448 13.7563 19.8566 14.0015 19.6581L13.7785 19.3272C13.6002 19.4595 13.3773 19.5478 13.1544 19.5478C12.8646 19.5478 12.5748 19.4154 12.5079 19.0402H14.0906V18.8638C14.113 18.1798 13.7117 17.7386 13.1097 17.7386H13.1098ZM13.1098 18.1357C13.3995 18.1357 13.6003 18.3123 13.6448 18.6432H12.5302C12.5748 18.3564 12.7754 18.1357 13.1098 18.1357ZM24.7236 18.8417V16.9443H24.2555V18.0475C24.0994 17.849 23.8765 17.7386 23.5867 17.7386C22.9849 17.7386 22.5168 18.2019 22.5168 18.8417C22.5168 19.4815 22.9849 19.9448 23.5867 19.9448C23.8989 19.9448 24.1218 19.8346 24.2555 19.636V19.9007H24.7236V18.8417ZM23.0072 18.8417C23.0072 18.4666 23.2523 18.1578 23.6537 18.1578C24.0326 18.1578 24.3001 18.4446 24.3001 18.8417C24.3001 19.2168 24.0326 19.5256 23.6537 19.5256C23.2523 19.5035 23.0072 19.2168 23.0072 18.8417ZM7.35858 18.8417V17.7827H6.89046V18.0475C6.73439 17.849 6.5115 17.7386 6.22169 17.7386C5.61984 17.7386 5.15173 18.2019 5.15173 18.8417C5.15173 19.4815 5.61984 19.9448 6.22169 19.9448C6.53384 19.9448 6.75673 19.8346 6.89046 19.636V19.9007H7.35858V18.8417ZM5.61984 18.8417C5.61984 18.4666 5.86507 18.1578 6.26627 18.1578C6.64523 18.1578 6.9128 18.4446 6.9128 18.8417C6.9128 19.2168 6.64523 19.5256 6.26627 19.5256C5.86507 19.5035 5.61984 19.2168 5.61984 18.8417Z" fill="black"/>
<path d="M9.47632 1.69873H16.4981V14.1863H9.47632V1.69873Z" fill="#FF5F00"/>
<path d="M9.92217 7.94261C9.92217 5.40543 11.1259 3.15497 12.976 1.69879C11.6163 0.639799 9.89993 0 8.02746 0C3.59131 0 0.00244141 3.55206 0.00244141 7.94261C0.00244141 12.3331 3.59131 15.8852 8.02736 15.8852C9.89983 15.8852 11.6162 15.2454 12.976 14.1863C11.1259 12.7523 9.92217 10.4798 9.92217 7.94261Z" fill="#EB001B"/>
<path d="M25.9719 7.94261C25.9719 12.3331 22.383 15.8852 17.9469 15.8852C16.0745 15.8852 14.3581 15.2454 12.9983 14.1863C14.8708 12.7303 16.0522 10.4798 16.0522 7.94261C16.0522 5.40543 14.8484 3.15497 12.9983 1.69879C14.358 0.639799 16.0745 0 17.9469 0C22.383 0 25.972 3.57417 25.972 7.94261H25.9719Z" fill="#F79E1B"/>
</g>
<defs>
<clipPath id="clip0_0_1209">
<rect width="26" height="20" fill="white"/>
</clipPath>
</defs>
</svg>
