<svg width="105" height="18" viewBox="0 0 105 18" fill="none" xmlns="http://www.w3.org/2000/svg">
<rect y="3" width="3" height="12" rx="1.5" fill="#16D4E9" fill-opacity="0.91"/>
<rect x="6" y="6" width="3" height="6" rx="1.5" fill="#16D4E9" fill-opacity="0.91"/>
<rect x="12" width="3" height="18" rx="1.5" fill="#16D4E9" fill-opacity="0.91"/>
<rect x="18" y="2" width="3" height="14" rx="1.5" fill="#16D4E9" fill-opacity="0.91"/>
<rect x="24" y="1" width="3" height="16" rx="1.5" fill="#16D4E9" fill-opacity="0.91"/>
<rect x="30" y="3" width="3" height="12" rx="1.5" fill="#16D4E9" fill-opacity="0.91"/>
<rect x="36" y="4.5" width="3" height="9" rx="1.5" fill="#16D4E9" fill-opacity="0.91"/>
<rect x="42" y="6" width="3" height="6" rx="1.5" fill="#16D4E9" fill-opacity="0.91"/>
<rect x="48" y="4.5" width="3" height="9" rx="1.5" fill="#16D4E9" fill-opacity="0.91"/>
<rect x="54" y="4.5" width="3" height="9" rx="1.5" fill="#16D4E9" fill-opacity="0.91"/>
<rect x="60" y="3" width="3" height="12" rx="1.5" fill="#16D4E9" fill-opacity="0.91"/>
<rect x="66" width="3" height="18" rx="1.5" fill="#16D4E9" fill-opacity="0.91"/>
<rect x="72" y="3" width="3" height="12" rx="1.5" fill="#16D4E9" fill-opacity="0.91"/>
<rect x="78" y="4.5" width="3" height="9" rx="1.5" fill="#16D4E9" fill-opacity="0.91"/>
<rect x="84" y="6" width="3" height="6" rx="1.5" fill="#16D4E9" fill-opacity="0.91"/>
<rect x="90" width="3" height="18" rx="1.5" fill="#16D4E9" fill-opacity="0.91"/>
<rect x="96" y="3" width="3" height="12" rx="1.5" fill="#16D4E9" fill-opacity="0.91"/>
<rect x="102" y="4.5" width="3" height="9" rx="1.5" fill="#16D4E9" fill-opacity="0.91"/>
</svg>
