<svg width="48" height="36" viewBox="0 0 48 36" fill="none" xmlns="http://www.w3.org/2000/svg">
<path d="M33.5575 0C34.5866 0 35.5706 0.402647 36.2964 1.1172C37.0231 1.8327 37.4282 2.80435 37.4282 3.8138V23.3469C37.4282 24.3563 37.0192 25.3251 36.2964 26.0397C35.5706 26.7542 34.5837 27.1569 33.5575 27.1569H5.21637C4.19109 27.1569 3.20709 26.7542 2.47749 26.0435C1.75173 25.328 1.34277 24.3563 1.34277 23.3469V3.8138C1.34277 3.3138 1.44454 2.81758 1.63845 2.35255C1.83237 1.8913 2.11845 1.47164 2.47749 1.1172C2.83749 0.763705 3.26373 0.482043 3.73605 0.291117C4.20549 0.0973551 4.70949 0 5.21637 0H33.5575Z" fill="#16D4E9" fill-opacity="0.91"/>
<path d="M12.6298 10.4707C12.8102 10.4707 12.9898 10.5057 13.1587 10.5747C13.3277 10.6437 13.4794 10.7448 13.6099 10.8734C13.7366 10.9981 13.8394 11.1475 13.9094 11.3138C13.9805 11.4802 14.015 11.6578 14.015 11.8384V15.3289C14.015 15.5095 13.9805 15.6871 13.9094 15.8535C13.8394 16.0198 13.7366 16.1692 13.6099 16.2977C13.4794 16.4225 13.3277 16.5236 13.1587 16.5926C12.9898 16.6616 12.8102 16.6966 12.6298 16.6966H0.0355195C0.0249595 16.6966 0.01728 16.6938 0.0105601 16.6862C0.00384006 16.6796 0 16.6692 0 16.6616V10.5123C0 10.5019 0.00384006 10.4953 0.0105601 10.4877C0.01728 10.4811 0.0249595 10.4773 0.0355195 10.4773H12.623C12.6269 10.4773 12.6269 10.4773 12.6269 10.4745C12.6269 10.4745 12.6298 10.4745 12.6298 10.4707Z" fill="#FAD998"/>
<path d="M10.6981 15.7409C11.7628 15.7409 12.6296 14.8912 12.6296 13.8392C12.6296 12.7882 11.7628 11.9375 10.6981 11.9375C9.6306 11.9375 8.7666 12.7882 8.7666 13.8392C8.7666 14.8912 9.6306 15.7409 10.6981 15.7409Z" fill="#16D4E9" fill-opacity="0.91"/>
<path d="M35.2925 36.0002C42.311 36.0002 48 30.3991 48 23.4889C48 16.5787 42.311 10.9775 35.2925 10.9775C28.2739 10.9775 22.585 16.5787 22.585 23.4889C22.585 30.3991 28.2739 36.0002 35.2925 36.0002Z" fill="#FAD998"/>
<path d="M33.1944 25.5187C33.2049 25.5187 33.2117 25.5225 33.2193 25.5291C33.2261 25.5357 33.2299 25.5433 33.2299 25.5499C33.3288 26.5707 33.7694 27.1151 34.7275 27.2711C34.7352 27.2711 34.7381 27.2711 34.7419 27.2711C34.7486 27.2711 34.7525 27.2682 34.7563 27.2644C34.7592 27.2607 34.763 27.2578 34.7668 27.254C34.7668 27.2474 34.7697 27.2436 34.7697 27.237V24.3212C34.7697 24.3108 34.7669 24.3041 34.763 24.2975C34.7563 24.29 34.7525 24.2871 34.7419 24.2871C32.8142 23.7701 30.8923 23.169 30.8923 20.7541C30.8923 18.428 32.6059 17.6992 34.738 17.4913C34.7457 17.4913 34.7563 17.4875 34.7592 17.4809C34.7669 17.4743 34.7697 17.4667 34.7697 17.4563V16.117C34.7697 16.1104 34.7736 16.1 34.7803 16.0924C34.788 16.0858 34.7947 16.082 34.8053 16.082H35.9371C35.9476 16.082 35.9544 16.0858 35.962 16.0924C35.9688 16.1 35.9726 16.1104 35.9726 16.117V17.4563C35.9726 17.4667 35.9755 17.4743 35.9832 17.4809C35.9899 17.4875 35.9966 17.4913 36.0072 17.4913C38.0376 17.5745 39.8884 18.5669 39.7406 20.8854C39.7406 20.8958 39.7368 20.9034 39.73 20.91C39.7224 20.9166 39.7156 20.9204 39.7051 20.9204H37.283C37.2763 20.9204 37.2657 20.9166 37.2619 20.91C37.2552 20.9034 37.2513 20.8958 37.2485 20.8892C37.1669 20.0565 36.7684 19.6019 36.0148 19.4658C36.011 19.4629 36.0043 19.4629 36.0005 19.4658C35.9937 19.4658 35.9899 19.4696 35.986 19.4733C35.9832 19.4762 35.9793 19.48 35.9755 19.4837C35.9755 19.4903 35.9726 19.4941 35.9726 19.5007V22.1765C35.9726 22.1832 35.9755 22.1907 35.9793 22.1973C35.986 22.204 35.9937 22.2077 36.0005 22.2115C37.9848 22.7077 39.9835 23.4157 39.9835 25.8552C39.9835 27.8098 38.5493 29.0867 36.0072 29.3712C35.9966 29.375 35.9899 29.3779 35.9832 29.3854C35.9793 29.3883 35.9755 29.3987 35.9755 29.4062V30.8599C35.9755 30.8665 35.9726 30.8779 35.9649 30.8845C35.9582 30.8911 35.9477 30.8949 35.94 30.8949H34.8053C34.7985 30.8949 34.788 30.8911 34.7803 30.8845C34.7736 30.8779 34.7697 30.8665 34.7697 30.8599V29.4091C34.7697 29.3987 34.7669 29.392 34.763 29.3854C34.7563 29.3779 34.7457 29.375 34.738 29.375C32.0597 29.2361 30.6638 27.9346 30.5928 25.5575C30.5928 25.5537 30.5966 25.5471 30.5966 25.5433C30.6005 25.5395 30.6005 25.5357 30.6033 25.5329C30.6072 25.5291 30.611 25.5253 30.6139 25.5253C30.6216 25.5225 30.6245 25.5225 30.6283 25.5225L33.1944 25.5187ZM34.7697 19.4799C34.7697 19.4762 34.7668 19.4696 34.7668 19.4658C34.763 19.4629 34.7592 19.4592 34.7563 19.4554C34.7525 19.4525 34.7486 19.4488 34.7419 19.4488C34.7381 19.445 34.7313 19.445 34.7275 19.445C33.9278 19.5839 33.5083 19.9866 33.5083 20.6813C33.5083 21.4062 33.9451 21.6699 34.7246 21.9062C34.7275 21.9091 34.7352 21.9091 34.7419 21.9062C34.7457 21.9062 34.7525 21.9024 34.7563 21.8987C34.7592 21.8958 34.763 21.892 34.7668 21.8883C34.7697 21.8817 34.7697 21.8779 34.7697 21.8713V19.4799ZM36.0216 24.6198C36.0148 24.6198 36.011 24.6198 36.0043 24.6198C36.0004 24.6198 35.9937 24.6236 35.9899 24.6264C35.9861 24.6302 35.9832 24.634 35.9793 24.6406C35.9793 24.6444 35.9755 24.651 35.9755 24.6548V27.2578C35.9755 27.2644 35.9793 27.2682 35.9793 27.2711C35.9832 27.2786 35.9861 27.2815 35.9899 27.2852C35.9937 27.289 35.9966 27.289 36.0043 27.2919C36.0072 27.2919 36.0149 27.2919 36.0177 27.2919C36.8779 27.1567 37.3857 26.7474 37.3857 25.8939C37.3896 25.0886 36.8779 24.8382 36.0216 24.6198Z" fill="#111827"/>
</svg>
