<svg width="20" height="20" viewBox="0 0 20 20" fill="none" xmlns="http://www.w3.org/2000/svg">
<g clip-path="url(#clip0_26_30448)">
<path d="M10 0.416996C9.68984 0.416297 9.38755 0.514745 9.13727 0.697973C8.88698 0.8812 8.70181 1.13962 8.60876 1.43552C8.51571 1.73142 8.51965 2.04931 8.62003 2.3428C8.7204 2.6363 8.91193 2.89004 9.16669 3.067V4.23366C8.41669 4.342 7.71669 4.58366 7.08336 4.95033L6.15836 3.62533C6.31669 3.192 6.27502 2.692 5.99169 2.292C5.70002 1.88366 5.25002 1.667 4.79169 1.667C4.50002 1.667 4.20836 1.75033 3.95836 1.93366C3.30002 2.392 3.13336 3.30033 3.60002 3.95866C3.88336 4.367 4.33336 4.58366 4.79169 4.58366L5.77502 5.98366C5.41669 6.342 5.13336 6.742 4.89169 7.18366C4.72502 7.117 4.55002 7.08366 4.37502 7.08366C4.00002 7.08366 3.62502 7.22533 3.33336 7.50033C2.77502 8.08366 2.77502 9.00033 3.33336 9.58366C3.57502 9.80866 3.86669 9.93366 4.16669 10.0003C4.16669 10.4503 4.22502 10.8837 4.31669 11.3003L3.22502 11.592C2.96669 11.3753 2.63336 11.2503 2.29169 11.2503C2.16669 11.2503 2.03336 11.2503 1.90836 11.3003C1.53491 11.4021 1.21715 11.648 1.02495 11.984C0.832738 12.3199 0.78181 12.7185 0.883358 13.092C1.05836 13.7503 1.66669 14.167 2.29169 14.167C2.41669 14.167 2.54169 14.167 2.67502 14.117C3.15002 13.9837 3.50836 13.6337 3.65836 13.2003L4.91669 12.8587C5.29169 13.517 5.79169 14.1003 6.37502 14.5837L5.45836 16.2503C5.00002 16.317 4.58336 16.5753 4.34169 17.017C4.25086 17.1855 4.19411 17.3703 4.17469 17.5608C4.15527 17.7512 4.17355 17.9436 4.22849 18.127C4.28343 18.3104 4.37396 18.4812 4.4949 18.6296C4.61584 18.778 4.76483 18.9012 4.93336 18.992C5.10189 19.0828 5.28666 19.1396 5.47712 19.159C5.66758 19.1784 5.86 19.1601 6.0434 19.1052C6.22679 19.0503 6.39757 18.9597 6.54598 18.8388C6.69439 18.7178 6.81753 18.5689 6.90836 18.4003C7.14169 17.967 7.13336 17.467 6.92502 17.0587L7.81669 15.417C8.49169 15.6837 9.22502 15.8337 10 15.8337H10.15C10.0417 16.0503 10 16.3003 10 16.567C10.0667 17.3337 10.7 17.917 11.4584 17.917H11.5667C12.375 17.8503 12.975 17.1503 12.9167 16.3503C12.8834 15.9337 12.675 15.567 12.375 15.3253C12.7667 15.1503 13.1417 14.9253 13.4917 14.667L15.4417 16.617C15.3584 17.0837 15.4917 17.5587 15.8334 17.917C16.125 18.192 16.5 18.3337 16.875 18.3337C17.25 18.3337 17.625 18.192 17.9167 17.917C18.475 17.3337 18.475 16.417 17.9167 15.8337C17.625 15.5587 17.25 15.417 16.875 15.417C16.7917 15.417 16.7084 15.417 16.6167 15.442L14.6667 13.492C15.075 12.9503 15.3917 12.3337 15.5917 11.667H16.5167C16.6936 11.9218 16.9474 12.1133 17.2409 12.2137C17.5344 12.314 17.8523 12.318 18.1482 12.2249C18.4441 12.1319 18.7025 11.9467 18.8857 11.6964C19.0689 11.4461 19.1674 11.1438 19.1667 10.8337C19.1674 10.5235 19.0689 10.2212 18.8857 9.97091C18.7025 9.72062 18.4441 9.53545 18.1482 9.4424C17.8523 9.34935 17.5344 9.35329 17.2409 9.45366C16.9474 9.55403 16.6936 9.74557 16.5167 10.0003H15.8334C15.8334 8.692 15.4167 7.50033 14.6667 6.50866L15.7834 5.392C15.875 5.417 15.9584 5.417 16.0417 5.417C16.4167 5.417 16.7917 5.27533 17.0834 5.00033C17.6417 4.42533 17.6417 3.50033 17.0834 2.917C16.7917 2.642 16.4167 2.50033 16.0417 2.50033C15.6667 2.50033 15.2917 2.642 15 2.917C14.6584 3.27533 14.525 3.75033 14.6084 4.217L13.4917 5.33366C12.725 4.75866 11.825 4.37533 10.8334 4.23366V3.067C11.0881 2.89004 11.2797 2.6363 11.38 2.3428C11.4804 2.04931 11.4843 1.73142 11.3913 1.43552C11.2982 1.13962 11.1131 0.8812 10.8628 0.697973C10.6125 0.514745 10.3102 0.416297 10 0.416996ZM10 14.167C7.70002 14.167 5.83336 12.3003 5.83336 10.0003C5.83336 7.70033 7.70002 5.83366 10 5.83366C12.3 5.83366 14.1667 7.70033 14.1667 10.0003C14.1667 12.3003 12.3 14.167 10 14.167ZM8.75002 7.50033C8.05836 7.50033 7.50002 8.05866 7.50002 8.75033C7.50002 9.442 8.05836 10.0003 8.75002 10.0003C9.44169 10.0003 10 9.442 10 8.75033C10 8.05866 9.44169 7.50033 8.75002 7.50033ZM11.6667 10.8337C11.2084 10.8337 10.8334 11.2087 10.8334 11.667C10.8334 12.1253 11.2084 12.5003 11.6667 12.5003C12.125 12.5003 12.5 12.1253 12.5 11.667C12.5 11.2087 12.125 10.8337 11.6667 10.8337Z" fill="#9CA3AF"/>
</g>
<defs>
<clipPath id="clip0_26_30448">
<rect width="20" height="20" fill="white"/>
</clipPath>
</defs>
</svg>
