<svg width="20" height="15" viewBox="0 0 20 15" fill="none" xmlns="http://www.w3.org/2000/svg">
<mask id="mask0_26_26707" style="mask-type:alpha" maskUnits="userSpaceOnUse" x="0" y="0" width="20" height="15">
<rect width="20" height="15" fill="white"/>
</mask>
<g mask="url(#mask0_26_26707)">
<path fill-rule="evenodd" clip-rule="evenodd" d="M0 0H20V15H0V0Z" fill="#E31D1C"/>
<path fill-rule="evenodd" clip-rule="evenodd" d="M0 1.25V2.5H20V1.25H0ZM0 3.75V5H20V3.75H0ZM0 7.5V6.25H20V7.5H0ZM0 8.75V10H20V8.75H0ZM0 12.5V11.25H20V12.5H0ZM0 15V13.75H20V15H0Z" fill="#F7FCFF"/>
<rect width="11.25" height="8.75" fill="#2E42A5"/>
<path fill-rule="evenodd" clip-rule="evenodd" d="M1.3 2.7167L1.9624 2.25528L2.47623 2.6252H2.1853L2.77364 3.14557L2.57492 3.8752H2.26369L1.96148 3.20508L1.70375 3.8752H0.935303L1.52364 4.39557L1.3 5.2167L1.9624 4.75528L2.47623 5.1252H2.1853L2.77364 5.64557L2.57492 6.3752H2.26369L1.96148 5.70508L1.70375 6.3752H0.935303L1.52364 6.89557L1.3 7.7167L1.9624 7.25528L2.60332 7.7167L2.40406 6.89557L2.91877 6.3752H2.68136L3.2124 6.00528L3.72623 6.3752H3.4353L4.02364 6.89557L3.8 7.7167L4.4624 7.25528L5.10332 7.7167L4.90406 6.89557L5.41877 6.3752H5.18136L5.7124 6.00528L6.22623 6.3752H5.9353L6.52364 6.89557L6.3 7.7167L6.9624 7.25528L7.60332 7.7167L7.40406 6.89557L7.91877 6.3752H7.68136L8.2124 6.00528L8.72623 6.3752H8.4353L9.02364 6.89557L8.8 7.7167L9.4624 7.25528L10.1033 7.7167L9.90406 6.89557L10.4188 6.3752H9.76369L9.46148 5.70508L9.20375 6.3752H8.83112L8.65406 5.64557L9.16877 5.1252H8.93136L9.4624 4.75528L10.1033 5.2167L9.90406 4.39557L10.4188 3.8752H9.76369L9.46148 3.20508L9.20375 3.8752H8.83112L8.65406 3.14557L9.16877 2.6252H8.93136L9.4624 2.25528L10.1033 2.7167L9.90406 1.89557L10.4188 1.3752H9.76369L9.46148 0.705078L9.20375 1.3752H8.4353L9.02364 1.89557L8.82492 2.6252H8.51369L8.21148 1.95508L7.95375 2.6252H7.58112L7.40406 1.89557L7.91877 1.3752H7.26369L6.96148 0.705078L6.70375 1.3752H5.9353L6.52364 1.89557L6.32492 2.6252H6.01369L5.71148 1.95508L5.45375 2.6252H5.08112L4.90406 1.89557L5.41877 1.3752H4.76369L4.46148 0.705078L4.20375 1.3752H3.4353L4.02364 1.89557L3.82492 2.6252H3.51369L3.21148 1.95508L2.95375 2.6252H2.58112L2.40406 1.89557L2.91877 1.3752H2.26369L1.96148 0.705078L1.70375 1.3752H0.935303L1.52364 1.89557L1.3 2.7167ZM8.82492 5.1252L9.02364 4.39557L8.4353 3.8752H8.72623L8.2124 3.50528L7.68136 3.8752H7.91877L7.40406 4.39557L7.58112 5.1252H7.95375L8.21148 4.45508L8.51369 5.1252H8.82492ZM7.47623 5.1252L6.9624 4.75528L6.43136 5.1252H6.66877L6.15406 5.64557L6.33112 6.3752H6.70375L6.96148 5.70508L7.26369 6.3752H7.57492L7.77364 5.64557L7.1853 5.1252H7.47623ZM5.27364 5.64557L5.07492 6.3752H4.76369L4.46148 5.70508L4.20375 6.3752H3.83112L3.65406 5.64557L4.16877 5.1252H3.93136L4.4624 4.75528L4.97623 5.1252H4.6853L5.27364 5.64557ZM5.45375 5.1252H5.08112L4.90406 4.39557L5.41877 3.8752H5.18136L5.7124 3.50528L6.22623 3.8752H5.9353L6.52364 4.39557L6.32492 5.1252H6.01369L5.71148 4.45508L5.45375 5.1252ZM3.82492 5.1252L4.02364 4.39557L3.4353 3.8752H3.72623L3.2124 3.50528L2.68136 3.8752H2.91877L2.40406 4.39557L2.58112 5.1252H2.95375L3.21148 4.45508L3.51369 5.1252H3.82492ZM7.77364 3.14557L7.57492 3.8752H7.26369L6.96148 3.20508L6.70375 3.8752H6.33112L6.15406 3.14557L6.66877 2.6252H6.43136L6.9624 2.25528L7.47623 2.6252H7.1853L7.77364 3.14557ZM4.97623 2.6252L4.4624 2.25528L3.93136 2.6252H4.16877L3.65406 3.14557L3.83112 3.8752H4.20375L4.46148 3.20508L4.76369 3.8752H5.07492L5.27364 3.14557L4.6853 2.6252H4.97623Z" fill="#F7FCFF"/>
</g>
</svg>
