<svg width="16" height="16" viewBox="0 0 16 16" fill="none" xmlns="http://www.w3.org/2000/svg">
<path d="M8 9.33337C9.10457 9.33337 10 8.43794 10 7.33337C10 6.2288 9.10457 5.33337 8 5.33337C6.89543 5.33337 6 6.2288 6 7.33337C6 8.43794 6.89543 9.33337 8 9.33337Z" stroke="#6B7280" stroke-width="1.5" stroke-linecap="round" stroke-linejoin="round"/>
<path d="M11.7714 11.1047L8.94269 13.9334C8.69268 14.1831 8.35375 14.3234 8.00036 14.3234C7.64697 14.3234 7.30803 14.1831 7.05802 13.9334L4.22869 11.1047C3.48284 10.3588 2.97491 9.40852 2.76915 8.37396C2.56338 7.3394 2.66902 6.26706 3.07269 5.29254C3.47637 4.31801 4.15995 3.48508 5.03701 2.89905C5.91407 2.31303 6.9452 2.00024 8.00002 2.00024C9.05485 2.00024 10.086 2.31303 10.963 2.89905C11.8401 3.48508 12.5237 4.31801 12.9274 5.29254C13.331 6.26706 13.4367 7.3394 13.2309 8.37396C13.0251 9.40852 12.5172 10.3588 11.7714 11.1047V11.1047Z" stroke="#6B7280" stroke-width="1.5" stroke-linecap="round" stroke-linejoin="round"/>
</svg>
