<svg width="3" height="8" viewBox="0 0 3 8" fill="none" xmlns="http://www.w3.org/2000/svg">
<path d="M1.14588 2.17544C0.827121 2.17544 0.555078 2.07147 0.329749 1.86355C0.109916 1.65042 0 1.39051 0 1.08382C0 0.787524 0.109916 0.532813 0.329749 0.319688C0.555078 0.106563 0.827121 0 1.14588 0C1.46464 0 1.73668 0.106563 1.96201 0.319688C2.18734 0.532813 2.3 0.787524 2.3 1.08382C2.3 1.39051 2.18734 1.65042 1.96201 1.86355C1.73668 2.07147 1.46464 2.17544 1.14588 2.17544ZM1.14588 8C0.827121 8 0.555078 7.89604 0.329749 7.68811C0.109916 7.47498 0 7.21507 0 6.90838C0 6.61209 0.109916 6.35737 0.329749 6.14425C0.555078 5.93112 0.827121 5.82456 1.14588 5.82456C1.46464 5.82456 1.73668 5.93112 1.96201 6.14425C2.18734 6.35737 2.3 6.61209 2.3 6.90838C2.3 7.21507 2.18734 7.47498 1.96201 7.68811C1.73668 7.89604 1.46464 8 1.14588 8Z" fill="#94F4FF"/>
</svg>
