<svg width="40" height="40" viewBox="0 0 40 40" fill="none" xmlns="http://www.w3.org/2000/svg">
<path d="M30.1178 13.6058C29.4573 13.8901 28.763 14.088 28.0519 14.1947C28.3844 14.1377 28.8735 13.5393 29.0682 13.2971C29.3641 12.9318 29.5895 12.5147 29.7331 12.0671C29.7331 12.0339 29.7664 11.9864 29.7331 11.9626C29.7164 11.9535 29.6976 11.9487 29.6785 11.9487C29.6594 11.9487 29.6406 11.9535 29.6239 11.9626C28.8518 12.3808 28.03 12.6999 27.1781 12.9125C27.1484 12.9215 27.1168 12.9223 27.0867 12.9148C27.0566 12.9073 27.0291 12.8917 27.0071 12.8697C26.9408 12.7908 26.8694 12.7162 26.7934 12.6465C26.4459 12.3352 26.0517 12.0804 25.6251 11.8914C25.0493 11.6552 24.4274 11.5529 23.8062 11.5922C23.2035 11.6303 22.6151 11.7919 22.0775 12.0671C21.5482 12.3572 21.083 12.7514 20.7098 13.2259C20.3173 13.7143 20.0339 14.281 19.8787 14.8881C19.7507 15.4655 19.7362 16.0623 19.836 16.6453C19.836 16.745 19.836 16.7592 19.7505 16.745C16.3644 16.2463 13.5861 15.0448 11.316 12.466C11.2163 12.3521 11.1641 12.3521 11.0833 12.466C10.0955 13.9668 10.5752 16.3413 11.8099 17.5144C11.9762 17.6711 12.1471 17.823 12.3276 17.9655C11.7615 17.9253 11.2092 17.7719 10.7034 17.5144C10.6084 17.4526 10.5562 17.4859 10.5514 17.5998C10.538 17.7579 10.538 17.9167 10.5514 18.0747C10.6505 18.832 10.949 19.5494 11.4162 20.1536C11.8835 20.7577 12.5029 21.2269 13.2109 21.5131C13.3835 21.587 13.5634 21.6428 13.7476 21.6793C13.2235 21.7825 12.686 21.7986 12.1566 21.7268C12.0427 21.7031 11.9999 21.7648 12.0427 21.874C12.7408 23.7737 14.2557 24.3531 15.367 24.676C15.519 24.6998 15.671 24.6998 15.842 24.7378C15.842 24.7378 15.8419 24.7378 15.8135 24.7663C15.4858 25.3646 14.1608 25.7683 13.5529 25.9773C12.4433 26.3758 11.2603 26.5282 10.086 26.4237C9.9008 26.3952 9.85806 26.4 9.81057 26.4237C9.76308 26.4474 9.81057 26.4997 9.86281 26.5472C10.1003 26.7039 10.3377 26.8416 10.5847 26.9746C11.3199 27.3756 12.0971 27.6941 12.9022 27.9244C17.072 29.0737 21.7641 28.2284 24.8938 25.1177C27.3538 22.6766 28.2182 19.3095 28.2182 15.9376C28.2182 15.8094 28.3749 15.7334 28.4651 15.6669C29.0875 15.182 29.6362 14.6093 30.0941 13.9668C30.1734 13.871 30.214 13.749 30.208 13.6248C30.208 13.5536 30.208 13.5678 30.1178 13.6058Z" fill="#33CCFF"/>
</svg>
