<svg width="48" height="16" viewBox="0 0 48 16" fill="none" xmlns="http://www.w3.org/2000/svg">
<g clip-path="url(#clip0_0_469)">
<path d="M47.9194 0C34.3892 3.64356 25.7718 6.33663 19.6107 12.8317C22.5906 14.0198 25.6913 15.1683 28.4295 15.9604C31.6107 9.78218 37.3691 4.79208 48 0.237624L47.9194 0Z" fill="#004D6E"/>
<path d="M30.4832 1.58421C28.8725 1.46539 27.1007 1.10896 25.6913 0.71292C22.6711 0.594108 6.96644 0.198068 0 3.12876C1.89262 4.27728 3.86577 5.38619 6.28188 6.65351C13.2886 3.44559 22.1879 2.33668 30.4832 1.86143V1.58421Z" fill="#004D6E"/>
<path d="M40.5504 1.54492C38.3759 1.82215 34.9128 1.94096 32.8188 1.94096C26.5772 2.61423 15.6242 4.3568 9.38257 8.11918C11.6779 9.26769 13.9732 10.3766 16.4295 11.3667C22.953 5.86175 31.6913 3.40631 40.5504 1.74294V1.54492Z" fill="#004D6E"/>
</g>
<defs>
<clipPath id="clip0_0_469">
<rect width="48" height="16" fill="white"/>
</clipPath>
</defs>
</svg>
