<svg width="24" height="8" viewBox="0 0 24 8" fill="none" xmlns="http://www.w3.org/2000/svg">
<g opacity="0.1">
<path d="M18.0473 5.83773H16.4869C16.4869 5.48457 16.1997 5.19732 15.8465 5.19732H12.9399C12.4309 5.19732 11.9959 4.78691 11.9959 4.28604C12.0123 4.13833 12.0204 3.98195 12.0204 3.82606C12.0204 1.71576 10.3042 0 8.19438 0C6.08408 0 4.36783 1.71576 4.36783 3.82606C4.36783 4.07241 4.39285 4.31058 4.43375 4.54056H1.55987C0.698142 4.54056 0 5.23822 0 6.10043C0 6.96265 0.698142 7.6603 1.55987 7.6603H17.8827H18.0386C18.5395 7.6603 18.9422 7.25807 18.9422 6.7572C18.9504 6.24815 18.5476 5.83773 18.0473 5.83773Z" fill="white"/>
<path d="M23.5154 2.74253H19.6398C19.3689 2.74253 19.1553 2.5289 19.1553 2.25802C19.1553 1.98713 19.3689 1.77351 19.6398 1.77351H23.5154C23.7863 1.77351 24 1.98713 24 2.25802C24 2.52072 23.7781 2.74253 23.5154 2.74253Z" fill="white"/>
<path d="M16.4869 5.85414C16.446 6.12502 16.2569 6.36319 16.0024 6.46182L16.4869 5.85414Z" fill="white"/>
<path d="M4.41745 4.58959C4.55698 4.97547 4.78697 5.32045 5.07421 5.60769L4.41745 4.58959Z" fill="white"/>
</g>
</svg>
