<svg width="103" height="33" viewBox="0 0 103 33" fill="none" xmlns="http://www.w3.org/2000/svg">
<g opacity="0.8">
<path d="M77.4529 25.0536H70.7563C70.7563 23.5379 69.5236 22.3052 68.0079 22.3052H55.5338C53.3491 22.3052 51.4824 20.5438 51.4824 18.3943C51.5526 17.7603 51.5877 17.0892 51.5877 16.4202C51.5877 7.36349 44.2222 0 35.1675 0C26.1108 0 18.7453 7.36349 18.7453 16.4202C18.7453 17.4774 18.8527 18.4996 19.0282 19.4866H6.69445C2.99619 19.4866 0 22.4807 0 26.181C0 29.8814 2.99619 32.8755 6.69445 32.8755H76.7466H77.4157C79.5652 32.8755 81.2936 31.1492 81.2936 28.9997C81.3287 26.815 79.6004 25.0536 77.4529 25.0536Z" fill="#41EAFD"/>
<path d="M100.921 11.7701H84.2877C83.1251 11.7701 82.2083 10.8533 82.2083 9.69072C82.2083 8.52818 83.1251 7.61136 84.2877 7.61136H100.921C102.083 7.61136 103 8.52818 103 9.69072C103 10.8182 102.048 11.7701 100.921 11.7701Z" fill="#41EAFD"/>
<path d="M70.7564 25.124C70.5808 26.2865 69.7693 27.3086 68.677 27.732L70.7564 25.124Z" fill="#41EAFD"/>
<path d="M18.9579 19.6973C19.5567 21.3533 20.5437 22.8339 21.7765 24.0666L18.9579 19.6973Z" fill="#41EAFD"/>
</g>
</svg>
