<svg width="20" height="20" viewBox="0 0 20 20" fill="none" xmlns="http://www.w3.org/2000/svg">
<path d="M7.08335 15.8327H6.66669C3.33335 15.8327 1.66669 14.9993 1.66669 10.8327V6.66602C1.66669 3.33268 3.33335 1.66602 6.66669 1.66602H13.3334C16.6667 1.66602 18.3334 3.33268 18.3334 6.66602V10.8327C18.3334 14.166 16.6667 15.8327 13.3334 15.8327H12.9167C12.6584 15.8327 12.4084 15.9577 12.25 16.166L11 17.8327C10.45 18.566 9.55002 18.566 9.00002 17.8327L7.75002 16.166C7.61669 15.9827 7.30835 15.8327 7.08335 15.8327Z" stroke="#9CA3AF" stroke-width="1.5" stroke-miterlimit="10" stroke-linecap="round" stroke-linejoin="round"/>
<path d="M5.83331 6.66602H14.1666" stroke="#9CA3AF" stroke-width="1.5" stroke-linecap="round" stroke-linejoin="round"/>
<path d="M5.83331 10.834H10.8333" stroke="#9CA3AF" stroke-width="1.5" stroke-linecap="round" stroke-linejoin="round"/>
</svg>
