<svg width="35" height="12" viewBox="0 0 35 12" fill="none" xmlns="http://www.w3.org/2000/svg">
<g clip-path="url(#clip0_26_30719)">
<path d="M22.9444 0.372201H19.4279C19.248 0.372201 19.1576 0.455278 19.1576 0.455278L9.46603 11.5442C9.42082 11.6273 9.42082 11.6684 9.51124 11.6684H10.9535C11.0887 11.6684 11.1339 11.6268 11.1339 11.5853L13.2076 9.14374C13.2076 9.14374 13.2523 9.10266 13.2976 9.10266H16.7684C16.7684 9.10266 16.8136 9.10266 16.8136 9.1442C16.8136 9.18574 16.3178 11.5442 16.3178 11.5442C16.3178 11.5857 16.3178 11.6684 16.4529 11.6684H20.6451C20.6903 11.6684 20.7355 11.6684 20.7355 11.5853L23.0796 0.495893C23.0344 0.495893 23.0796 0.371278 22.9439 0.371278L22.9444 0.372201ZM16.9935 7.98574H14.2887H14.244V7.9442L17.85 3.68282L17.8952 3.64128C17.9399 3.64128 17.8952 3.68282 17.8952 3.68282L16.9935 7.9862C17.0387 7.94466 17.0387 7.94466 16.9935 7.9862V7.98574ZM0.0899167 10.2616C0.0899167 10.2616 0.405889 9.26882 0.450611 9.30989C0.450611 9.14466 0.541028 9.10312 0.630958 9.18574C1.03686 9.5582 2.29881 10.6756 4.05707 10.6756C5.99519 10.6756 5.86006 9.22728 5.86006 9.02051C5.86006 8.44128 5.04825 5.58574 4.82318 4.84128C4.19221 2.44128 5.77013 0.248047 9.51124 0.248047C11.4946 0.248047 12.4862 0.744662 12.8469 0.909893C13.0725 1.03451 13.0268 1.19974 13.0268 1.19974C13.0268 1.19974 12.8017 2.06882 12.8017 2.15143C12.7565 2.23451 12.6666 2.23451 12.5767 2.15143C11.9904 1.82051 11.3142 1.44805 10.2773 1.44805C9.06061 1.44805 8.42915 2.27559 8.74513 3.47559C8.88026 3.88959 9.64638 6.74466 9.78151 7.32389C10.3226 9.39297 8.78985 11.8756 4.64332 11.8756C2.34401 11.8756 0.901722 11.0896 0.405889 10.7171C0.135125 10.5099 0.0451945 10.3857 0.0899167 10.2616ZM22.1326 10.3031C22.1326 10.3031 22.3582 9.22774 22.3582 9.30989C22.4034 9.18574 22.538 9.14466 22.6285 9.22728C23.0796 9.59974 24.2511 10.6756 26.0094 10.6756C27.9475 10.6756 27.8128 9.22728 27.8128 9.02051C27.8128 8.44128 27.001 5.58574 26.7755 4.84128C26.1445 2.44128 27.7229 0.248047 31.4635 0.248047C33.4469 0.248047 34.4385 0.744662 34.7992 0.909893C35.0248 1.03451 34.9796 1.19974 34.9796 1.19974C34.9796 1.19974 34.754 2.06882 34.754 2.15143C34.7093 2.23451 34.6189 2.23451 34.5289 2.15143C33.9427 1.82051 33.2665 1.44805 32.2296 1.44805C31.0129 1.44805 30.3819 2.27559 30.6974 3.47559C30.8326 3.88959 31.5987 6.74466 31.7343 7.32389C32.2748 9.39297 30.7426 11.8756 26.5951 11.8756C24.2963 11.8756 22.9444 11.1307 22.4486 10.7587C22.1778 10.5514 22.0874 10.4273 22.1326 10.3031Z" fill="black"/>
</g>
<defs>
<clipPath id="clip0_26_30719">
<rect width="35" height="12" fill="white"/>
</clipPath>
</defs>
</svg>
