<svg width="20" height="20" viewBox="0 0 20 20" fill="none" xmlns="http://www.w3.org/2000/svg">
<path d="M10.8332 10.0002C10.8332 9.53993 10.4601 9.16683 9.99984 9.16683C9.5396 9.16683 9.1665 9.53993 9.1665 10.0002C9.1665 10.4604 9.5396 10.8335 9.99984 10.8335C10.4601 10.8335 10.8332 10.4604 10.8332 10.0002Z" stroke="#9CA3AF" stroke-width="2" stroke-linecap="round" stroke-linejoin="round"/>
<path d="M16.6667 10.0002C16.6667 9.53993 16.2936 9.16683 15.8333 9.16683C15.3731 9.16683 15 9.53993 15 10.0002C15 10.4604 15.3731 10.8335 15.8333 10.8335C16.2936 10.8335 16.6667 10.4604 16.6667 10.0002Z" stroke="#9CA3AF" stroke-width="2" stroke-linecap="round" stroke-linejoin="round"/>
<path d="M4.99992 10.0002C4.99992 9.53993 4.62682 9.16683 4.16659 9.16683C3.70635 9.16683 3.33325 9.53993 3.33325 10.0002C3.33325 10.4604 3.70635 10.8335 4.16659 10.8335C4.62682 10.8335 4.99992 10.4604 4.99992 10.0002Z" stroke="#9CA3AF" stroke-width="2" stroke-linecap="round" stroke-linejoin="round"/>
</svg>
