<svg width="20" height="20" viewBox="0 0 20 20" fill="none" xmlns="http://www.w3.org/2000/svg">
<path d="M8.33337 11.6676C8.60494 11.9448 8.92908 12.165 9.28681 12.3153C9.64455 12.4656 10.0287 12.5431 10.4167 12.5431C10.8047 12.5431 11.1889 12.4656 11.5466 12.3153C11.9043 12.165 12.2285 11.9448 12.5 11.6676L15.8334 8.3343C16.3859 7.78176 16.6963 7.03237 16.6963 6.25097C16.6963 5.46956 16.3859 4.72017 15.8334 4.16763C15.2808 3.6151 14.5314 3.30469 13.75 3.30469C12.9686 3.30469 12.2192 3.6151 11.6667 4.16763L11.25 4.5843" stroke="#9CA3AF" stroke-width="1.5" stroke-linecap="round" stroke-linejoin="round"/>
<path d="M11.6667 8.33441C11.3951 8.05724 11.0709 7.83705 10.7132 7.68673C10.3555 7.53641 9.97135 7.45898 9.58332 7.45898C9.19529 7.45898 8.81116 7.53641 8.45343 7.68673C8.0957 7.83705 7.77155 8.05724 7.49999 8.33441L4.16666 11.6677C3.61412 12.2203 3.30371 12.9697 3.30371 13.7511C3.30371 14.5325 3.61412 15.2819 4.16666 15.8344C4.71919 16.3869 5.46859 16.6974 6.24999 16.6974C7.03139 16.6974 7.78079 16.3869 8.33332 15.8344L8.74999 15.4177" stroke="#9CA3AF" stroke-width="1.5" stroke-linecap="round" stroke-linejoin="round"/>
</svg>
