<svg width="147" height="120" viewBox="0 0 147 120" fill="none" xmlns="http://www.w3.org/2000/svg">
<rect x="14" width="120" height="120" rx="60" fill="#F6F7F9"/>
<path d="M51.9189 50.6374C51.9189 50.6359 51.9204 50.6329 51.9219 50.6314C51.9234 50.6299 51.9249 50.6299 51.9279 50.6299H107.991C107.994 50.6299 107.996 50.6299 107.997 50.6314C107.999 50.6329 108 50.6359 108 50.6374V80.2682C108 80.2697 107.999 80.2712 107.997 80.2727C107.996 80.2757 107.994 80.2757 107.991 80.2757L80.061 80.4633L51.9279 80.2757C51.9249 80.2757 51.9234 80.2757 51.9219 80.2727C51.9204 80.2712 51.9189 80.2697 51.9189 80.2682V50.6374Z" fill="#16D4E9" fill-opacity="0.91"/>
<path d="M100.63 43.1572H44.5663C44.5618 43.1572 44.5588 43.1602 44.5588 43.1662V72.794C44.5588 72.8 44.5618 72.803 44.5663 72.803H100.63C100.636 72.803 100.639 72.8 100.639 72.794V43.1662C100.639 43.1602 100.636 43.1572 100.63 43.1572Z" fill="#16D4E9" fill-opacity="0.91"/>
<path d="M72.5977 68.2252C78.4161 68.2252 83.1314 63.5083 83.1314 57.6914C83.1314 51.8745 78.4161 47.1592 72.5977 47.1592C66.7808 47.1592 62.0654 51.8745 62.0654 57.6914C62.0654 63.5083 66.7808 68.2252 72.5977 68.2252Z" fill="#003C80"/>
<path d="M55.6374 48.3975H51.1936C51.1876 48.3975 51.1846 48.402 51.1846 48.4065V67.5545C51.1846 67.559 51.1876 67.562 51.1936 67.562H55.6374C55.6419 67.562 55.6464 67.559 55.6464 67.5545V48.4065C55.6464 48.402 55.6419 48.3975 55.6374 48.3975Z" fill="#003C80"/>
<path d="M94.0035 48.3975H89.5598C89.5538 48.3975 89.5508 48.402 89.5508 48.4065V67.5545C89.5508 67.559 89.5538 67.562 89.5598 67.562H94.0035C94.008 67.562 94.0125 67.559 94.0125 67.5545V48.4065C94.0125 48.402 94.008 48.3975 94.0035 48.3975Z" fill="#003C80"/>
<path d="M100.639 50.6299V72.8035H51.9189" stroke="#003C80" stroke-width="2" stroke-linecap="round" stroke-linejoin="round"/>
<path d="M72.0345 61.8954C72.0375 61.8954 72.0375 61.8954 72.039 61.8954C72.0405 61.8954 72.0405 61.8954 72.0435 61.8939C72.0435 61.8939 72.0435 61.8923 72.045 61.8908C72.045 61.8893 72.045 61.8893 72.045 61.8878V58.6687C72.045 58.6657 72.045 58.6642 72.0435 58.6627C72.0435 58.6612 72.0405 58.6597 72.039 58.6597C69.971 58.097 67.9059 57.4531 67.9059 54.8238C67.9059 52.2951 69.7504 51.5087 72.0375 51.2866C72.039 51.2866 72.042 51.2851 72.0435 51.2836C72.045 51.2821 72.045 51.2805 72.045 51.2775V49.7678C72.045 49.7648 72.0465 49.7633 72.048 49.7618C72.0495 49.7603 72.051 49.7588 72.054 49.7588H73.3236C73.3251 49.7588 73.3266 49.7603 73.3296 49.7618C73.3296 49.7633 73.3311 49.7648 73.3311 49.7678V51.2775C73.3311 51.2805 73.3326 51.2821 73.3326 51.2836C73.3341 51.2866 73.3371 51.2866 73.3401 51.2866C75.5237 51.3691 77.5272 52.4526 77.3517 54.9964C77.3517 54.9979 77.3502 55.0009 77.3487 55.0024C77.3472 55.0039 77.3456 55.0039 77.3426 55.0039H74.7058C74.7043 55.0039 74.7013 55.0039 74.6998 55.0024C74.6998 55.0009 74.6983 54.9979 74.6983 54.9964C74.6158 54.0599 74.1776 53.5617 73.3432 53.4176C73.3402 53.4176 73.3401 53.4176 73.3386 53.4176C73.3371 53.4191 73.3356 53.4191 73.3341 53.4191C73.3341 53.4206 73.3326 53.4221 73.3326 53.4236C73.3326 53.4236 73.3326 53.4251 73.3326 53.4266V56.3846C73.3326 56.3861 73.3326 56.3876 73.3341 56.3891C73.3341 56.3906 73.3371 56.3921 73.3386 56.3936C75.4667 56.9354 77.6128 57.7008 77.6128 60.3496C77.6128 62.4776 76.0685 63.8643 73.3401 64.166C73.3386 64.166 73.3356 64.169 73.3341 64.169C73.3326 64.1705 73.3326 64.1735 73.3326 64.175V65.8063C73.3326 65.8093 73.3326 65.8093 73.3311 65.8108C73.3311 65.8108 73.3311 65.8123 73.3296 65.8123C73.3296 65.8138 73.3281 65.8153 73.3266 65.8153C73.3266 65.8153 73.3251 65.8153 73.3236 65.8153H72.054C72.054 65.8153 72.0525 65.8153 72.051 65.8153C72.051 65.8153 72.0495 65.8138 72.048 65.8123C72.048 65.8123 72.048 65.8108 72.0465 65.8108C72.0465 65.8093 72.0465 65.8093 72.0465 65.8063V64.175C72.0465 64.1735 72.045 64.1705 72.045 64.169C72.0435 64.1675 72.0405 64.166 72.039 64.166C69.1531 64.0234 67.6493 62.6007 67.5848 59.9954C67.5848 59.9939 67.5863 59.9924 67.5878 59.9894C67.5893 59.9879 67.5908 59.9879 67.5938 59.9879H70.3897C70.3927 59.9879 70.3942 59.9879 70.3957 59.9894C70.3972 59.9909 70.3987 59.9924 70.3987 59.9939C70.4092 60.114 70.5893 61.7228 72.0345 61.8954ZM72.045 53.4056C72.045 53.4041 72.045 53.4041 72.045 53.4011C72.0435 53.4011 72.0435 53.3996 72.042 53.3996C72.0405 53.3981 72.0405 53.3981 72.039 53.3981C72.0375 53.3981 72.036 53.3966 72.0345 53.3981C71.1581 53.5392 70.7003 53.9819 70.7003 54.7413C70.7003 55.5412 71.1776 55.8248 72.0345 56.0844H72.0375C72.039 56.0844 72.0405 56.0845 72.042 56.083C72.0435 56.083 72.0435 56.0814 72.045 56.0799C72.045 56.0784 72.045 56.0769 72.045 56.0769V53.4056ZM73.3326 59.0139V61.9074C73.3326 61.9089 73.3326 61.9104 73.3326 61.9104C73.3326 61.9134 73.3341 61.9134 73.3341 61.9149C73.3372 61.9149 73.3371 61.9164 73.3386 61.9164C73.3401 61.9164 73.3402 61.9164 73.3432 61.9164C74.2811 61.7738 74.8394 61.3311 74.8394 60.3901C74.8394 59.5092 74.2811 59.2465 73.3432 59.0064C73.3417 59.0064 73.3401 59.0064 73.3386 59.0064C73.3371 59.0064 73.3372 59.0064 73.3357 59.0079C73.3342 59.0079 73.3341 59.0094 73.3326 59.0109C73.3326 59.0124 73.3326 59.0124 73.3326 59.0139Z" fill="white"/>
<path d="M79.9587 45.4087C84.7671 45.4087 88.6631 41.5112 88.6631 36.7043C88.6631 31.8974 84.7671 28 79.9587 28C75.1518 28 71.2559 31.8974 71.2559 36.7043C71.2559 41.5112 75.1518 45.4087 79.9587 45.4087Z" fill="#FAD998"/>
<path d="M79.9582 42.0794C82.9267 42.0794 85.3338 39.6737 85.3338 36.7052C85.3338 33.7368 82.9267 31.3311 79.9582 31.3311C76.9897 31.3311 74.584 33.7368 74.584 36.7052C74.584 39.6737 76.9897 42.0794 79.9582 42.0794Z" stroke="white" stroke-linecap="round" stroke-linejoin="round"/>
<path d="M41.7028 80.2754C46.5112 80.2754 50.4072 76.3794 50.4072 71.571C50.4072 66.7641 46.5112 62.8682 41.7028 62.8682C36.8974 62.8682 33 66.7641 33 71.571C33 76.3794 36.8974 80.2754 41.7028 80.2754Z" fill="#FAD998"/>
<path d="M41.7033 76.9462C44.6733 76.9462 47.079 74.5405 47.079 71.572C47.079 68.6035 44.6733 66.1963 41.7033 66.1963C38.7363 66.1963 36.3291 68.6035 36.3291 71.572C36.3291 74.5405 38.7363 76.9462 41.7033 76.9462Z" stroke="white" stroke-linecap="round" stroke-linejoin="round"/>
<path d="M79.1784 92.9922C83.9853 92.9922 87.8813 89.0947 87.8813 84.2878C87.8813 79.4809 83.9853 75.585 79.1784 75.585C74.3715 75.585 70.4756 79.4809 70.4756 84.2878C70.4756 89.0947 74.3715 92.9922 79.1784 92.9922Z" fill="#FAD998"/>
<path d="M79.1784 89.663C82.1469 89.663 84.5541 87.2573 84.5541 84.2873C84.5541 81.3203 82.1469 78.9131 79.1784 78.9131C76.2099 78.9131 73.8027 81.3203 73.8027 84.2873C73.8027 87.2573 76.2099 89.663 79.1784 89.663Z" stroke="white" stroke-linecap="round" stroke-linejoin="round"/>
<circle cx="3" cy="17" r="2" fill="#FFDE65"/>
<circle cx="132" cy="11" r="2" fill="#2DD4BF"/>
<circle cx="143.5" cy="20.5" r="3.5" fill="#E5E7EB"/>
<circle cx="2" cy="109" r="2" fill="#FF8092"/>
</svg>
