<svg width="20" height="20" viewBox="0 0 20 20" fill="none" xmlns="http://www.w3.org/2000/svg">
<path d="M18.3333 4.99935V7.01602C18.3333 8.33268 17.5 9.16602 16.1833 9.16602H13.3333V3.34102C13.3333 2.41602 14.0917 1.66602 15.0167 1.66602C15.925 1.67435 16.7583 2.04102 17.3583 2.64102C17.9583 3.24935 18.3333 4.08268 18.3333 4.99935Z" stroke="#9CA3AF" stroke-width="1.5" stroke-miterlimit="10" stroke-linecap="round" stroke-linejoin="round"/>
<path d="M1.66669 5.83268V17.4993C1.66669 18.191 2.45 18.5827 3 18.166L4.42502 17.0994C4.75835 16.8494 5.22502 16.8827 5.52502 17.1827L6.90834 18.5744C7.23334 18.8994 7.76671 18.8994 8.09171 18.5744L9.4917 17.1744C9.78337 16.8827 10.25 16.8494 10.575 17.0994L12 18.166C12.55 18.5743 13.3334 18.1827 13.3334 17.4993V3.33268C13.3334 2.41602 14.0834 1.66602 15 1.66602H5.83335H5.00002C2.50002 1.66602 1.66669 3.15768 1.66669 4.99935V5.83268Z" stroke="#9CA3AF" stroke-width="1.5" stroke-miterlimit="10" stroke-linecap="round" stroke-linejoin="round"/>
<path d="M5 7.5H10" stroke="#9CA3AF" stroke-width="1.5" stroke-linecap="round" stroke-linejoin="round"/>
<path d="M5.625 10.834H9.375" stroke="#9CA3AF" stroke-width="1.5" stroke-linecap="round" stroke-linejoin="round"/>
</svg>
