<svg width="147" height="120" viewBox="0 0 147 120" fill="none" xmlns="http://www.w3.org/2000/svg">
<rect x="14" width="120" height="120" rx="60" fill="#F6F7F9"/>
<circle cx="3" cy="17" r="2" fill="#FFDE65"/>
<circle cx="132" cy="11" r="2" fill="#2DD4BF"/>
<circle cx="143.5" cy="20.5" r="3.5" fill="#E5E7EB"/>
<circle cx="2" cy="109" r="2" fill="#FF8092"/>
<rect x="42" y="28" width="64" height="64" rx="32" fill="#16D4E9" fill-opacity="0.91"/>
<path d="M81.7467 49.96C81.64 49.96 81.5333 49.9333 81.44 49.88C78.88 48.56 76.6667 48 74.0133 48C71.3733 48 68.8667 48.6267 66.5867 49.88C66.2667 50.0533 65.8667 49.9333 65.68 49.6133C65.5968 49.4574 65.5782 49.275 65.628 49.1055C65.6779 48.936 65.7923 48.7927 65.9467 48.7067C68.4267 47.36 71.1467 46.6667 74.0133 46.6667C76.8533 46.6667 79.3333 47.2933 82.0533 48.6933C82.3867 48.8667 82.5067 49.2667 82.3333 49.5867C82.2806 49.6978 82.1976 49.7918 82.0938 49.8579C81.99 49.9239 81.8697 49.9593 81.7467 49.96ZM62.6667 56.96C62.5437 56.9611 62.4229 56.9282 62.3176 56.8649C62.2123 56.8015 62.1265 56.7103 62.0699 56.6012C62.0133 56.4921 61.988 56.3694 61.9968 56.2468C62.0057 56.1242 62.0483 56.0065 62.12 55.9067C63.44 54.04 65.12 52.5733 67.12 51.5467C71.3067 49.3867 76.6667 49.3733 80.8667 51.5333C82.8667 52.56 84.5467 54.0133 85.8667 55.8667C85.9178 55.9383 85.9543 56.0194 85.9739 56.1052C85.9936 56.191 85.996 56.2799 85.9812 56.3667C85.9663 56.4534 85.9344 56.5364 85.8872 56.6108C85.8401 56.6852 85.7788 56.7495 85.7067 56.8C85.4 57.0133 84.9867 56.9467 84.7733 56.64C83.6057 54.9872 82.0547 53.6421 80.2533 52.72C76.4267 50.76 71.5333 50.76 67.72 52.7333C65.9067 53.6667 64.3867 55 63.1867 56.68C63.08 56.8667 62.88 56.96 62.6667 56.96ZM71 73.0533C70.9126 73.0544 70.8259 73.0371 70.7455 73.0027C70.6651 72.9683 70.5928 72.9174 70.5333 72.8533C69.3733 71.6933 68.7467 70.9467 67.8533 69.3333C66.9333 67.6933 66.4533 65.6933 66.4533 63.5467C66.4533 59.5867 69.84 56.36 74 56.36C78.16 56.36 81.5467 59.5867 81.5467 63.5467C81.5467 63.92 81.2533 64.2133 80.88 64.2133C80.5067 64.2133 80.2133 63.92 80.2133 63.5467C80.2133 60.32 77.4267 57.6933 74 57.6933C70.5733 57.6933 67.7867 60.32 67.7867 63.5467C67.7867 65.4667 68.2133 67.24 69.0267 68.68C69.88 70.2133 70.4667 70.8667 71.4933 71.9067C71.7467 72.1733 71.7467 72.5867 71.4933 72.8533C71.3467 72.9867 71.1733 73.0533 71 73.0533ZM80.56 70.5867C78.9733 70.5867 77.5733 70.1867 76.4267 69.4C74.44 68.0533 73.2533 65.8667 73.2533 63.5467C73.2533 63.1733 73.5467 62.88 73.92 62.88C74.2933 62.88 74.5867 63.1733 74.5867 63.5467C74.5867 65.4267 75.5467 67.2 77.1733 68.2933C78.12 68.9333 79.2267 69.24 80.56 69.24C80.88 69.24 81.4133 69.2 81.9466 69.1067C82.3067 69.04 82.6533 69.28 82.72 69.6533C82.7867 70.0133 82.5466 70.36 82.1733 70.4267C81.4133 70.5733 80.7467 70.5867 80.56 70.5867ZM77.88 73.3333C77.8267 73.3333 77.76 73.32 77.7067 73.3067C75.5867 72.72 74.2 71.9333 72.7467 70.5067C71.8257 69.5973 71.0954 68.5133 70.5986 67.3182C70.1018 66.1231 69.8484 64.8409 69.8533 63.5467C69.8533 61.3867 71.6933 59.6267 73.96 59.6267C76.2267 59.6267 78.0667 61.3867 78.0667 63.5467C78.0667 64.9733 79.3067 66.1333 80.84 66.1333C82.3733 66.1333 83.6133 64.9733 83.6133 63.5467C83.6133 58.52 79.28 54.44 73.9467 54.44C70.16 54.44 66.6933 56.5467 65.1333 59.8133C64.6133 60.8933 64.3467 62.16 64.3467 63.5467C64.3467 64.5867 64.44 66.2267 65.24 68.36C65.3733 68.7067 65.2 69.0933 64.8533 69.2133C64.5067 69.3467 64.12 69.16 64 68.8267C63.3575 67.1404 63.0277 65.3512 63.0267 63.5467C63.0267 61.9467 63.3333 60.4933 63.9333 59.2267C65.7067 55.5067 69.64 53.0933 73.9467 53.0933C80.0133 53.0933 84.9467 57.7733 84.9467 63.5333C84.9467 65.6933 83.1067 67.4533 80.84 67.4533C78.5733 67.4533 76.7333 65.6933 76.7333 63.5333C76.7333 62.1067 75.4933 60.9467 73.96 60.9467C72.4267 60.9467 71.1867 62.1067 71.1867 63.5333C71.1867 65.8133 72.0667 67.9467 73.68 69.5467C74.9467 70.8 76.16 71.4933 78.04 72.0133C78.4 72.1067 78.6 72.48 78.5067 72.8267C78.44 73.1333 78.16 73.3333 77.88 73.3333Z" fill="white"/>
</svg>
