<svg width="20" height="20" viewBox="0 0 20 20" fill="none" xmlns="http://www.w3.org/2000/svg">
<path d="M15.0001 6.66602H8.33341C7.41294 6.66602 6.66675 7.41221 6.66675 8.33268V14.9993C6.66675 15.9198 7.41294 16.666 8.33341 16.666H15.0001C15.9206 16.666 16.6667 15.9198 16.6667 14.9993V8.33268C16.6667 7.41221 15.9206 6.66602 15.0001 6.66602Z" stroke="#16D4E9" stroke-opacity="0.91" stroke-width="1.5" stroke-linecap="round" stroke-linejoin="round"/>
<path d="M13.3334 6.66634V4.99967C13.3334 4.55765 13.1578 4.13372 12.8452 3.82116C12.5327 3.5086 12.1087 3.33301 11.6667 3.33301H5.00004C4.55801 3.33301 4.13409 3.5086 3.82153 3.82116C3.50897 4.13372 3.33337 4.55765 3.33337 4.99967V11.6663C3.33337 12.1084 3.50897 12.5323 3.82153 12.8449C4.13409 13.1574 4.55801 13.333 5.00004 13.333H6.66671" stroke="#16D4E9" stroke-opacity="0.91" stroke-width="1.5" stroke-linecap="round" stroke-linejoin="round"/>
</svg>
