<svg width="16" height="16" viewBox="0 0 16 16" fill="none" xmlns="http://www.w3.org/2000/svg">
<path d="M11.9999 4.0003V4.00697M11.9999 8.66697L9.66659 5.33364C9.44196 4.92766 9.32716 4.4701 9.3335 4.00617C9.33985 3.54224 9.46713 3.08799 9.70277 2.68831C9.93841 2.28862 10.2743 1.95734 10.6771 1.72719C11.08 1.49703 11.5359 1.37598 11.9999 1.37598C12.4639 1.37598 12.9198 1.49703 13.3227 1.72719C13.7256 1.95734 14.0614 2.28862 14.2971 2.68831C14.5327 3.08799 14.66 3.54224 14.6663 4.00617C14.6727 4.4701 14.5579 4.92766 14.3333 5.33364L11.9999 8.66697Z" stroke="#111827" stroke-width="1.5" stroke-linecap="round" stroke-linejoin="round"/>
<path d="M7 3.16699L6 2.66699L2 4.66699V13.3337L6 11.3337L10 13.3337L14 11.3337V10.0003M6 2.66699V11.3337M10 10.0003V13.3337" stroke="#111827" stroke-width="1.5" stroke-linecap="round" stroke-linejoin="round"/>
</svg>
