<svg width="16" height="16" viewBox="0 0 16 16" fill="none" xmlns="http://www.w3.org/2000/svg">
<path d="M3.33329 2.6665H12.6666C12.8434 2.6665 13.013 2.73674 13.138 2.86177C13.2631 2.98679 13.3333 3.15636 13.3333 3.33317V6.6665C13.3333 6.84331 13.2631 7.01288 13.138 7.13791C13.013 7.26293 12.8434 7.33317 12.6666 7.33317H7.99996C7.82315 7.33317 7.65358 7.40341 7.52855 7.52843C7.40353 7.65346 7.33329 7.82303 7.33329 7.99984V12.6665C7.33329 12.8433 7.26305 13.0129 7.13803 13.1379C7.01301 13.2629 6.84344 13.3332 6.66663 13.3332H3.33329C3.15648 13.3332 2.98691 13.2629 2.86189 13.1379C2.73686 13.0129 2.66663 12.8433 2.66663 12.6665V3.33317C2.66663 3.15636 2.73686 2.98679 2.86189 2.86177C2.98691 2.73674 3.15648 2.6665 3.33329 2.6665M2.66663 5.33317H3.99996M2.66663 7.99984H4.66663M2.66663 10.6665H3.99996M5.33329 2.6665V3.99984M7.99996 2.6665V4.6665M10.6666 2.6665V3.99984" stroke="#9CA3AF" stroke-width="1.5" stroke-linecap="round" stroke-linejoin="round"/>
</svg>
