<svg width="14" height="14" viewBox="0 0 14 14" fill="none" xmlns="http://www.w3.org/2000/svg">
<path d="M5.25 12.2497V8.74967C5.25 8.44026 5.37292 8.14351 5.59171 7.92472C5.8105 7.70592 6.10725 7.58301 6.41667 7.58301H7.19892" stroke="#9CA3AF" stroke-linecap="round" stroke-linejoin="round"/>
<path d="M11.4812 6.23117L7 1.75L1.75 7H2.91667V11.0833C2.91667 11.3928 3.03958 11.6895 3.25838 11.9083C3.47717 12.1271 3.77391 12.25 4.08333 12.25H7" stroke="#9CA3AF" stroke-linecap="round" stroke-linejoin="round"/>
<path d="M12.8333 9.33301C12.8333 11.6663 11.375 12.833 10.7917 12.833C10.2083 12.833 8.75 11.6663 8.75 9.33301C9.33333 9.33301 10.2083 9.04134 10.7917 8.45801C11.375 9.04134 12.25 9.33301 12.8333 9.33301Z" stroke="#9CA3AF" stroke-linecap="round" stroke-linejoin="round"/>
</svg>
