<svg width="20" height="20" viewBox="0 0 20 20" fill="none" xmlns="http://www.w3.org/2000/svg">
<path d="M16.25 10.4173C16.25 9.26732 17.1834 8.33398 18.3334 8.33398V7.50065C18.3334 4.16732 17.5 3.33398 14.1667 3.33398H5.83335C2.50002 3.33398 1.66669 4.16732 1.66669 7.50065V7.91732C2.81669 7.91732 3.75002 8.85065 3.75002 10.0007C3.75002 11.1507 2.81669 12.084 1.66669 12.084V12.5007C1.66669 15.834 2.50002 16.6673 5.83335 16.6673H14.1667C17.5 16.6673 18.3334 15.834 18.3334 12.5007C17.1834 12.5007 16.25 11.5673 16.25 10.4173Z" stroke="#16D4E9" stroke-opacity="0.91" stroke-width="1.5" stroke-linecap="round" stroke-linejoin="round"/>
<path d="M7.5 12.291L12.5 7.29102" stroke="#16D4E9" stroke-opacity="0.91" stroke-width="1.5" stroke-linecap="round" stroke-linejoin="round"/>
<path d="M12.4954 12.2917H12.5029" stroke="#16D4E9" stroke-opacity="0.91" stroke-width="2" stroke-linecap="round" stroke-linejoin="round"/>
<path d="M7.4954 7.70768H7.50289" stroke="#16D4E9" stroke-opacity="0.91" stroke-width="2" stroke-linecap="round" stroke-linejoin="round"/>
</svg>
