<svg width="147" height="120" viewBox="0 0 147 120" fill="none" xmlns="http://www.w3.org/2000/svg">
<rect x="14" width="120" height="120" rx="60" fill="#F6F7F9"/>
<circle cx="3" cy="17" r="2" fill="#FFDE65"/>
<circle cx="132" cy="11" r="2" fill="#2DD4BF"/>
<circle cx="143.5" cy="20.5" r="3.5" fill="#E5E7EB"/>
<circle cx="2" cy="109" r="2" fill="#FF8092"/>
<path d="M76.9231 21.7736L98.0884 26.1372L86.9607 80.0327L64.3545 75.364L75.177 22.9518C75.2123 22.7595 75.2863 22.5761 75.3957 22.4103C75.4998 22.248 75.6391 22.1052 75.8067 21.9958C75.9672 21.8865 76.1506 21.8124 76.3428 21.7736C76.5351 21.733 76.7309 21.733 76.9231 21.7736Z" fill="#16D4E9" fill-opacity="0.91"/>
<path d="M63.874 75.6682L74.827 22.4711C74.9152 22.0725 75.1586 21.7233 75.499 21.501C75.8447 21.2841 76.2592 21.2047 76.6596 21.2911L98.5674 25.8311L88.1823 76.3226L86.5667 84.1343L79.1924 78.8536L63.874 75.6682ZM86.0429 78.5484L96.6484 27.0957L77.2275 23.0814C77.1235 23.0602 77.0176 23.0549 76.9136 23.0725C76.8095 23.0902 76.709 23.129 76.6208 23.1854C76.5291 23.2419 76.455 23.3177 76.395 23.4041C76.3333 23.4906 76.2892 23.5876 76.268 23.6916L65.8371 74.3577L86.0429 78.5484Z" fill="#BEF8FF"/>
<path d="M83.9057 62.4025L88.3134 41.0185C88.3963 40.6481 88.6185 40.32 88.9324 40.1066C89.2517 39.8967 89.6397 39.8138 90.0154 39.8844C90.2024 39.9232 90.3946 39.9232 90.5781 39.8879C90.765 39.8491 90.9449 39.775 91.1019 39.671C91.2589 39.5651 91.3982 39.4293 91.5023 39.2724C91.6081 39.1119 91.6822 38.9373 91.7175 38.7485L92.9821 32.6829C93.0262 32.4748 92.9997 32.2596 92.9045 32.0674C92.8075 31.8769 92.6505 31.7234 92.4582 31.6352C91.8744 31.3707 91.3806 30.9509 91.0225 30.4182C90.6698 29.8856 90.4687 29.2612 90.4511 28.6245C90.4511 28.4111 90.377 28.2012 90.2412 28.0354C90.1071 27.8661 89.9184 27.7514 89.7103 27.7091L86.1316 26.9665L82.5529 26.224C82.343 26.1817 82.1296 26.2064 81.9373 26.3034C81.7451 26.3986 81.5916 26.5556 81.5052 26.7478C81.2389 27.3281 80.8191 27.8255 80.2882 28.1835C79.7555 28.5381 79.1312 28.7338 78.4945 28.755C78.2793 28.755 78.0712 28.8308 77.9054 28.9649C77.7343 29.1007 77.6214 29.2877 77.5773 29.4975L73.5189 49.0913L69.4604 68.6868C69.4163 68.8967 69.4428 69.1101 69.538 69.3023C69.635 69.4946 69.792 69.6427 69.9843 69.7344C70.5645 69.9955 71.0619 70.4188 71.42 70.9515C71.7727 71.4841 71.9703 72.1032 71.9914 72.7452C71.9914 72.9586 72.0655 73.1685 72.2013 73.3343C72.3354 73.5001 72.5241 73.6183 72.734 73.6624L76.3127 74.4031L79.8896 75.1457C80.0995 75.1898 80.3129 75.1633 80.5052 75.0663C80.6974 74.9711 80.8456 74.8141 80.9373 74.6219C81.2001 74.0363 81.6234 73.5442 82.156 73.1861C82.6869 72.8316 83.3078 72.6323 83.948 72.6147C84.1632 72.6147 84.3713 72.5406 84.5389 72.4048C84.7047 72.269 84.8211 72.082 84.8652 71.8721L86.1316 65.8065C86.1704 65.6196 86.1704 65.4273 86.1351 65.2386C86.0963 65.0552 86.0222 64.877 85.9164 64.7201C85.8123 64.5631 85.6765 64.4237 85.5196 64.3179C85.3591 64.2138 85.1844 64.1398 84.9957 64.1045C84.8123 64.0657 84.6377 63.9916 84.4807 63.8823C84.329 63.7764 84.1985 63.6371 84.098 63.4801C83.9921 63.3231 83.9233 63.145 83.8916 62.9616C83.8616 62.7728 83.8651 62.5859 83.9057 62.4025Z" fill="#BEF8FF"/>
<path d="M83.7312 40.7109C84.8653 40.7109 85.7825 39.7938 85.7825 38.6597C85.7825 37.5256 84.8653 36.6084 83.7312 36.6084C82.5953 36.6084 81.6799 37.5256 81.6799 38.6597C81.6799 39.7938 82.5953 40.7109 83.7312 40.7109Z" fill="#6BF0FF"/>
<path opacity="0.5" d="M82.9889 58.6926C83.0806 58.7102 83.1635 58.7455 83.2429 58.7967C83.3169 58.8496 83.3822 58.9148 83.4298 58.9942C83.4827 59.0718 83.5127 59.16 83.5251 59.2464C83.5392 59.3381 83.5339 59.4334 83.5127 59.5216L81.2427 70.5628C81.2269 70.6545 81.1916 70.7374 81.1387 70.815C81.0858 70.8891 81.0205 70.9561 80.9429 71.0037C80.8635 71.0549 80.7771 71.0866 80.6854 71.099C80.5972 71.1131 80.502 71.1078 80.4138 71.0866C80.3221 71.069 80.2392 71.0337 80.1616 70.9808C80.0875 70.9296 80.0222 70.8644 79.9728 70.785C79.9217 70.7056 79.8899 70.6192 79.8776 70.5275C79.86 70.4411 79.8688 70.3441 79.8899 70.2576L82.1599 59.2164C82.1775 59.1247 82.2128 59.0418 82.264 58.9624C82.3169 58.8884 82.3821 58.8231 82.4615 58.7755C82.5391 58.7226 82.6273 58.6926 82.7137 58.6785C82.8054 58.6626 82.9024 58.6697 82.9889 58.6926Z" fill="#6BF0FF"/>
<path d="M76.8785 60.3511C76.2153 60.2118 75.5221 60.277 74.8925 60.531C74.2646 60.7832 73.7231 61.2189 73.3439 61.778C72.9594 62.3406 72.7548 63.0038 72.7513 63.6811C72.7424 64.3619 72.9382 65.0251 73.3086 65.593C73.6843 66.1592 74.217 66.6054 74.8413 66.8718C75.4657 67.1381 76.1536 67.2122 76.822 67.0799C77.4905 66.9547 78.1008 66.6354 78.5858 66.1592C79.0691 65.6847 79.4007 65.0727 79.54 64.4095C79.637 63.9686 79.6458 63.51 79.5629 63.0656C79.48 62.6211 79.3143 62.1978 79.0656 61.8221C78.8169 61.4429 78.4941 61.1201 78.1184 60.8661C77.7427 60.6139 77.3247 60.4393 76.8785 60.3511ZM75.8308 65.4572C75.4904 65.3831 75.1764 65.2121 74.9366 64.9598C74.6932 64.7111 74.5309 64.3919 74.4692 64.0515C74.4039 63.7076 74.4445 63.353 74.5838 63.0356C74.7232 62.7128 74.9542 62.4412 75.247 62.2542C75.5398 62.062 75.8802 61.9667 76.2294 61.9702C76.5769 61.9738 76.9173 62.0831 77.2065 62.2842C77.4905 62.4817 77.7127 62.7604 77.8433 63.0832C77.9703 63.406 78.0002 63.764 77.9262 64.1044C77.8821 64.3319 77.7904 64.5489 77.6598 64.7411C77.5293 64.9387 77.3635 65.0992 77.166 65.2262C76.9702 65.3532 76.7515 65.4396 76.5204 65.4784C76.2947 65.519 76.0583 65.5101 75.8308 65.4572Z" fill="#16D4E9" fill-opacity="0.91"/>
<path d="M81.2423 57.0335C84.7116 57.0335 87.5266 54.2185 87.5266 50.7492C87.5266 47.2798 84.7116 44.4648 81.2423 44.4648C77.7729 44.4648 74.9597 47.2798 74.9597 50.7492C74.9597 54.2185 77.7729 57.0335 81.2423 57.0335Z" fill="#16D4E9" fill-opacity="0.91"/>
<path opacity="0.5" d="M80.0221 30.3703C80.1138 30.3879 80.1967 30.4232 80.2743 30.4743C80.3484 30.5273 80.4136 30.5925 80.463 30.6719C80.5142 30.7495 80.5459 30.8377 80.5583 30.9241C80.5706 31.0158 80.5671 31.1128 80.5459 31.1993L78.276 42.2405C78.2583 42.3322 78.223 42.4151 78.1719 42.4927C78.119 42.5668 78.0537 42.6338 77.9743 42.6814C77.8967 42.7325 77.8086 42.7643 77.7168 42.7766C77.6304 42.7908 77.5334 42.7855 77.447 42.7643C77.3553 42.7467 77.2724 42.7114 77.193 42.6585C77.1189 42.6073 77.0537 42.5421 77.006 42.4627C76.9531 42.3851 76.9231 42.2969 76.9108 42.2052C76.8932 42.1188 76.902 42.0217 76.9231 41.9353L79.1931 30.8941C79.2354 30.7142 79.3448 30.5625 79.5018 30.462C79.6552 30.365 79.8422 30.3315 80.0221 30.3703Z" fill="#6BF0FF"/>
<path d="M78.4503 26.5739C79.0782 26.5739 79.5844 26.0677 79.5844 25.4398C79.5844 24.8119 79.0782 24.3057 78.4503 24.3057C77.8224 24.3057 77.3162 24.8119 77.3162 25.4398C77.3162 26.0677 77.8224 26.5739 78.4503 26.5739Z" fill="#BEF8FF"/>
<path d="M68.6749 74.0102C69.3028 74.0102 69.809 73.5022 69.809 72.8743C69.809 72.2464 69.3028 71.7402 68.6749 71.7402C68.0453 71.7402 67.5391 72.2464 67.5391 72.8743C67.5391 73.5022 68.0453 74.0102 68.6749 74.0102Z" fill="#BEF8FF"/>
<path d="M90.8884 42.5012L93.8551 43.1133L89.8407 62.707L86.8723 62.0967C86.7682 62.0738 86.6712 62.0315 86.5848 61.9697C86.4966 61.908 86.4225 61.8304 86.3661 61.7422C86.3097 61.6558 86.2709 61.5552 86.2532 61.4512C86.2356 61.3454 86.2391 61.2413 86.262 61.1355L89.9713 43.1556C89.9836 43.0515 90.0189 42.951 90.0753 42.8593C90.1282 42.7676 90.2023 42.6899 90.2852 42.6282C90.3734 42.5665 90.4686 42.5242 90.5727 42.5012C90.6785 42.4801 90.7826 42.4801 90.8884 42.5012Z" fill="#BEF8FF"/>
<path d="M60.0735 25.9189L39.5891 36.558L64.9574 85.3915L85.4419 74.7525L60.0735 25.9189Z" fill="#16D4E9" fill-opacity="0.91"/>
<path d="M39 36.391L60.2517 25.3516L85.9992 74.8818L64.7475 85.923L39 36.391ZM65.446 83.6971L83.7751 74.1833L59.5532 27.5333L41.2241 37.0471L65.446 83.6971Z" fill="#BEF8FF"/>
<path d="M71.9472 63.0098L61.9095 43.6347C61.7402 43.289 61.7102 42.8975 61.8231 42.5306C61.936 42.1638 62.19 41.8586 62.5216 41.6699C62.6909 41.5835 62.8443 41.4653 62.966 41.3171C63.093 41.169 63.1847 40.9979 63.2412 40.8198C63.2976 40.6363 63.3206 40.4405 63.2976 40.2518C63.28 40.0596 63.2235 39.8761 63.1318 39.7068L60.2516 34.2074C60.1511 34.0151 59.9906 33.8582 59.793 33.7717C59.5937 33.6835 59.3697 33.6712 59.1616 33.7276C58.5407 33.8987 57.8864 33.8846 57.2761 33.6888C56.6641 33.4966 56.1244 33.1297 55.7134 32.6376C55.5829 32.4665 55.3942 32.3537 55.186 32.3131C54.9797 32.2743 54.7627 32.3096 54.5793 32.4189L51.3498 34.0769L48.1204 35.7348C47.9281 35.8353 47.7712 35.9976 47.683 36.1934C47.5965 36.3945 47.5824 36.6167 47.6406 36.8266C47.81 37.4457 47.7976 38.1 47.6001 38.7121C47.4096 39.3223 47.0427 39.8638 46.5489 40.273C46.3795 40.4053 46.2649 40.5922 46.2261 40.7968C46.1873 41.0067 46.2226 41.2254 46.3302 41.4089L55.5388 59.17L64.7474 76.9312C64.848 77.1235 65.0085 77.2804 65.206 77.3686C65.4053 77.455 65.6293 77.4691 65.8375 77.4109C66.4583 77.2416 67.1127 77.254 67.7229 77.4462C68.335 77.6438 68.8747 78.0089 69.2856 78.5027C69.4161 78.672 69.6049 78.7867 69.8095 78.8255C70.0194 78.8643 70.2363 78.8308 70.4197 78.7214L73.6492 77.0617L76.8787 75.4038C77.0709 75.3032 77.2279 75.1427 77.3161 74.9452C77.4025 74.7459 77.4166 74.5219 77.3584 74.3138C77.1891 73.6929 77.2014 73.0386 77.3937 72.4283C77.5895 71.8163 77.9563 71.2766 78.4502 70.8656C78.6195 70.7351 78.7341 70.5463 78.773 70.3382C78.8118 70.1319 78.7765 69.9149 78.6689 69.7315L75.7887 64.2321C75.7005 64.0627 75.5823 63.9093 75.4341 63.7876C75.286 63.6606 75.1167 63.5689 74.9368 63.5124C74.7533 63.456 74.5575 63.4331 74.3688 63.456C74.1783 63.4736 73.9949 63.5301 73.8238 63.6218C73.6633 63.7135 73.4834 63.7735 73.3 63.7911C73.113 63.814 72.9261 63.7911 72.7514 63.7347C72.5715 63.6782 72.411 63.583 72.2699 63.456C72.1306 63.3325 72.0212 63.1808 71.9472 63.0098Z" fill="#BEF8FF"/>
<path d="M56.8053 46.7355C57.9394 46.7355 58.8548 45.8201 58.8548 44.6843C58.8548 43.5502 57.9394 42.6348 56.8053 42.6348C55.6694 42.6348 54.754 43.5502 54.754 44.6843C54.754 45.8201 55.6694 46.7355 56.8053 46.7355Z" fill="#6BF0FF"/>
<path opacity="0.5" d="M68.8927 60.6994C69.0638 60.6165 69.2561 60.6041 69.4342 60.6606C69.6141 60.717 69.7623 60.8387 69.854 61.0045L75.0465 70.998C75.1294 71.1691 75.1418 71.3614 75.0853 71.5395C75.0289 71.7194 74.9072 71.8676 74.7414 71.9593C74.5703 72.0422 74.3781 72.0545 74.1999 71.9981C74.0218 71.9417 73.8719 71.8182 73.7802 71.6524L68.5876 61.6589C68.5012 61.4896 68.4871 61.2973 68.5435 61.1192C68.6017 60.9357 68.7269 60.7876 68.8927 60.6994Z" fill="#6BF0FF"/>
<path d="M65.2272 65.8483C64.6205 66.1622 64.1178 66.6508 63.7862 67.2522C63.4546 67.8502 63.3118 68.5363 63.3682 69.2171C63.4247 69.9014 63.6857 70.5522 64.1143 71.0884C64.5411 71.6211 65.1179 72.0179 65.7722 72.2278C66.4231 72.4324 67.1251 72.4412 67.7794 72.2543C68.4391 72.062 69.0282 71.6828 69.4691 71.159C69.91 70.6351 70.1852 69.9896 70.2628 69.3088C70.3369 68.628 70.2117 67.9383 69.8959 67.3316C69.4726 66.515 68.7442 65.8994 67.8676 65.6207C66.9945 65.3456 66.0439 65.425 65.2272 65.8483ZM67.6277 70.4729C67.3226 70.6299 66.9734 70.6969 66.633 70.6616C66.2873 70.621 65.9645 70.4817 65.6982 70.2648C65.4371 70.0408 65.2449 69.7444 65.1443 69.4129C65.0473 69.0813 65.0526 68.7285 65.1567 68.4005C65.2625 68.0742 65.4583 67.7814 65.7281 67.5627C65.9945 67.3492 66.3225 67.2187 66.6665 67.187C67.0122 67.157 67.3561 67.2275 67.6577 67.3933C67.9628 67.5591 68.208 67.8113 68.3685 68.1165C68.5696 68.531 68.6049 69.0037 68.4655 69.4428C68.3297 69.8802 68.0281 70.2506 67.6277 70.4729Z" fill="#16D4E9" fill-opacity="0.91"/>
<path d="M68.7923 55.8485C68.9105 52.3791 66.1925 49.476 62.7232 49.3631C59.2573 49.2449 56.3559 51.9646 56.2378 55.434C56.1249 58.898 58.8429 61.8047 62.3087 61.9176C65.778 62.0322 68.6794 59.3125 68.7923 55.8485Z" fill="#16D4E9" fill-opacity="0.91"/>
<path opacity="0.5" d="M48.6863 40.5814C48.8574 40.4985 49.0496 40.4844 49.2278 40.5408C49.4077 40.599 49.5558 40.7207 49.6476 40.8865L54.8401 50.88C54.923 51.0494 54.9371 51.2416 54.8789 51.4215C54.8225 51.5997 54.7008 51.7478 54.535 51.8395C54.3639 51.9224 54.1734 51.9365 53.9935 51.8801C53.8154 51.8219 53.6672 51.7002 53.5755 51.5344L48.3812 41.5409C48.2948 41.3716 48.2806 41.1793 48.3388 40.9994C48.3953 40.816 48.5205 40.6678 48.6863 40.5814Z" fill="#6BF0FF"/>
<path d="M44.3675 38.8784C44.9954 38.8784 45.5016 38.3722 45.5016 37.7425C45.5016 37.1146 44.9954 36.6084 44.3675 36.6084C43.7396 36.6084 43.2334 37.1146 43.2334 37.7425C43.2334 38.3722 43.7396 38.8784 44.3675 38.8784Z" fill="#BEF8FF"/>
<path d="M66.7103 81.8639C67.3382 81.8639 67.8444 81.3577 67.8444 80.7298C67.8444 80.1019 67.3382 79.5957 66.7103 79.5957C66.0824 79.5957 65.5762 80.1019 65.5762 80.7298C65.5762 81.3577 66.0824 81.8639 66.7103 81.8639Z" fill="#BEF8FF"/>
<path d="M64.7903 43.1559L67.4977 41.7607L76.7046 59.5219L73.999 60.9188C73.9037 60.9664 73.8032 60.9964 73.6938 61.0052C73.5898 61.0141 73.4839 61.0017 73.3799 60.97C73.2793 60.9365 73.1876 60.8871 73.1047 60.8183C73.0218 60.7477 72.9566 60.6648 72.909 60.5696L64.4429 44.2477C64.3547 44.0554 64.3423 43.8367 64.4023 43.6321C64.4675 43.431 64.6086 43.2617 64.7903 43.1559Z" fill="#BEF8FF"/>
<path d="M48.165 28.2735L68.937 22.1638C69.2985 22.0598 69.6919 22.1039 70.0234 22.282C70.3603 22.4619 70.609 22.7618 70.7254 23.1251L85.8251 74.5761L63.6562 81.0791L48.165 28.2735Z" fill="#16D4E9" fill-opacity="0.91"/>
<path d="M47.6836 28.0136L69.2863 21.6852C69.6478 21.59 70.0376 21.6323 70.3692 21.8122C70.7043 21.9903 70.953 22.2884 71.0747 22.6447L86.3931 74.8823L63.4376 81.604L47.6836 28.0136ZM64.4853 79.5527L84.2977 73.7482L69.8542 24.4349C69.766 24.1421 69.5649 23.8934 69.2951 23.7453C69.0252 23.5971 68.7095 23.5618 68.4132 23.65L49.7349 29.1036L64.4853 79.5527Z" fill="#BEF8FF"/>
<path d="M74.8275 60.5246L68.6755 39.578C68.5661 39.2112 68.6049 38.8179 68.7831 38.4863C68.9665 38.1512 69.2734 37.8972 69.635 37.7878C69.8184 37.7402 69.993 37.6573 70.1447 37.5391C70.2946 37.421 70.4163 37.2728 70.508 37.1035C70.5997 36.9377 70.6509 36.749 70.6685 36.562C70.6826 36.3698 70.6562 36.1775 70.5944 35.9994L68.8501 30.0202C68.7919 29.8156 68.6666 29.6357 68.4867 29.5175C68.3121 29.3958 68.0987 29.3429 67.8888 29.3658C67.2468 29.4011 66.6101 29.2565 66.0474 28.946C65.4848 28.6409 65.0174 28.1788 64.7035 27.6197C64.6029 27.4327 64.4371 27.2846 64.2361 27.2052C64.035 27.1223 63.818 27.1188 63.6117 27.184L60.1212 28.1876L56.6307 29.1912C56.4243 29.2476 56.2462 29.3746 56.128 29.5492C56.0063 29.7274 55.9534 29.9373 55.9746 30.1507C56.0098 30.7927 55.867 31.4294 55.5565 31.9921C55.2514 32.5565 54.7875 33.0221 54.2302 33.3361C54.0415 33.4366 53.8933 33.6024 53.8157 33.8035C53.7328 34.0045 53.7275 34.2232 53.7928 34.4278L59.4227 53.63L65.0527 72.8304C65.1091 73.0368 65.2361 73.2149 65.4107 73.3331C65.5889 73.4548 65.7988 73.5077 66.0122 73.4865C66.6542 73.4513 67.2909 73.5941 67.8535 73.901C68.418 74.2097 68.8836 74.6736 69.1975 75.2309C69.2981 75.4196 69.4639 75.5678 69.6649 75.6454C69.866 75.7283 70.0847 75.7336 70.2893 75.6683L73.7798 74.6647L77.2721 73.6612C77.4767 73.603 77.6566 73.4777 77.773 73.2978C77.8965 73.1232 77.9476 72.9098 77.9264 72.6999C77.8912 72.0597 78.0358 71.4212 78.3409 70.8585C78.6514 70.2959 79.1135 69.8285 79.6726 69.5145C79.8595 69.414 80.0077 69.2482 80.0871 69.0471C80.17 68.8461 80.1735 68.6291 80.1082 68.4228L78.3621 62.4453C78.3145 62.2619 78.2316 62.0873 78.1134 61.9338C77.997 61.7857 77.8471 61.6587 77.6777 61.5723C77.512 61.4805 77.325 61.4276 77.1363 61.41C76.944 61.3977 76.7518 61.4241 76.5736 61.4841C76.2156 61.5846 75.8311 61.5423 75.5048 61.3624C75.1767 61.1842 74.9333 60.8826 74.8275 60.5246Z" fill="#BEF8FF"/>
<path d="M63.5249 41.6719C64.659 41.6719 65.5762 40.7565 65.5762 39.6206C65.5762 38.4865 64.659 37.5693 63.5249 37.5693C62.3908 37.5693 61.4736 38.4865 61.4736 39.6206C61.4736 40.7565 62.3908 41.6719 63.5249 41.6719Z" fill="#6BF0FF"/>
<path opacity="0.5" d="M72.2523 57.6436C72.4322 57.5959 72.6245 57.6224 72.785 57.7088C72.9473 57.8005 73.069 57.9487 73.1254 58.1233L76.3125 68.9458C76.3602 69.1257 76.3337 69.318 76.2455 69.4785C76.1538 69.6407 76.0056 69.7624 75.831 69.8189C75.6529 69.8665 75.4606 69.8418 75.3001 69.7536C75.1379 69.6619 75.0162 69.5138 74.9597 69.3391L71.7726 58.5166C71.725 58.3367 71.7514 58.1462 71.8379 57.984C71.926 57.8217 72.0742 57.7 72.2523 57.6436Z" fill="#6BF0FF"/>
<path d="M67.6701 61.9652C67.0158 62.1521 66.432 62.5366 65.991 63.0552C65.5501 63.579 65.2749 64.221 65.2008 64.8966C65.1232 65.5774 65.2485 66.2635 65.5624 66.8702C65.8781 67.477 66.3667 67.9743 66.9646 68.3059C67.5625 68.6322 68.2469 68.7804 68.9242 68.7204C69.605 68.664 70.254 68.4065 70.7867 67.9779C71.3194 67.551 71.7162 66.9743 71.9208 66.3235C72.1272 65.6744 72.136 64.9759 71.9473 64.3216C71.695 63.4397 71.1006 62.6971 70.2981 62.2562C69.4956 61.8153 68.552 61.7112 67.6701 61.9652ZM69.1552 66.9831C68.8236 67.0837 68.4691 67.0784 68.1375 66.9778C67.8059 66.8791 67.5096 66.678 67.2909 66.4117C67.074 66.14 66.9381 65.8137 66.9082 65.468C66.8729 65.1241 66.947 64.7749 67.1075 64.4697C67.2733 64.1646 67.5273 63.9159 67.8324 63.7537C68.1375 63.5914 68.4867 63.5226 68.8324 63.5579C69.1764 63.5914 69.5044 63.7325 69.7708 63.9494C70.0371 64.1734 70.2329 64.4697 70.3334 64.8013C70.4604 65.2458 70.4075 65.7255 70.1888 66.1312C69.9665 66.5386 69.5962 66.8438 69.1552 66.9831Z" fill="#16D4E9" fill-opacity="0.91"/>
<path d="M73.2882 51.6553C73.4064 48.186 70.6866 45.2846 67.2173 45.1717C63.7532 45.0535 60.8501 47.7715 60.7319 51.2408C60.619 54.7066 63.3388 57.6133 66.8028 57.7262C70.2721 57.8391 73.1753 55.1211 73.2882 51.6553Z" fill="#16D4E9" fill-opacity="0.91"/>
<path opacity="0.5" d="M56.3677 34.0352C56.5476 33.9875 56.7381 34.014 56.9004 34.1004C57.0626 34.1921 57.1843 34.3403 57.2408 34.5149L60.4262 45.3392C60.4738 45.5173 60.4491 45.7096 60.3609 45.8701C60.2692 46.0323 60.121 46.154 59.9464 46.2105C59.7683 46.2599 59.576 46.2334 59.4138 46.1452C59.2533 46.0535 59.1298 45.9053 59.0733 45.7307L55.888 34.9082C55.8527 34.8218 55.8404 34.7248 55.8492 34.6296C55.858 34.5378 55.8845 34.4461 55.9268 34.3632C55.9744 34.2803 56.0361 34.2063 56.1102 34.1498C56.1896 34.0969 56.276 34.0528 56.3677 34.0352Z" fill="#6BF0FF"/>
<path d="M52.6585 31.5483C53.2864 31.5483 53.7926 31.0421 53.7926 30.4142C53.7926 29.7845 53.2864 29.2783 52.6585 29.2783C52.0306 29.2783 51.5244 29.7845 51.5244 30.4142C51.5244 31.0421 52.0306 31.5483 52.6585 31.5483Z" fill="#BEF8FF"/>
<path d="M66.2745 78.0258C66.9024 78.0258 67.4086 77.5196 67.4086 76.8917C67.4086 76.2621 66.9024 75.7559 66.2745 75.7559C65.6449 75.7559 65.1387 76.2621 65.1387 76.8917C65.1387 77.5196 65.6449 78.0258 66.2745 78.0258Z" fill="#BEF8FF"/>
<path d="M71.642 39.6651L74.5663 38.792L80.1963 57.9942L77.272 58.8672C77.1661 58.8972 77.0621 58.906 76.9527 58.8937C76.8487 58.8796 76.7428 58.8443 76.6529 58.7932C76.5559 58.7402 76.4783 58.6697 76.4077 58.5833C76.3425 58.5004 76.2948 58.4051 76.2684 58.2993L71.1182 40.6686C71.0582 40.4676 71.0794 40.2506 71.1799 40.0619C71.2751 39.8749 71.4409 39.7303 71.642 39.6651Z" fill="#BEF8FF"/>
<path d="M86.4805 21.4229H63.3945V76.4525H86.4805V21.4229Z" fill="#16D4E9" fill-opacity="0.91"/>
<path d="M63.001 76.8025V21.0303H86.9159V76.8907H63.0451C63.001 76.8466 63.001 76.8466 63.001 76.8025ZM85.258 75.2309V22.6441H64.6166V75.1886H85.258V75.2309Z" fill="#BEF8FF"/>
<path d="M79.9332 59.8251V38.0055C79.9385 37.6263 80.0902 37.2594 80.3565 36.9878C80.6281 36.7215 80.9932 36.5698 81.3742 36.5645C81.7534 36.561 82.1203 36.4075 82.3866 36.1377C82.6564 35.8714 82.8099 35.5045 82.8134 35.1253V28.9274C82.8134 28.714 82.7393 28.5041 82.6035 28.3383C82.4695 28.169 82.2808 28.0561 82.0726 28.012C81.443 27.8674 80.8715 27.5499 80.4182 27.0913C79.9596 26.6362 79.6404 26.0648 79.4975 25.4369C79.4534 25.227 79.3353 25.04 79.1695 24.9042C79.0037 24.7684 78.7938 24.6943 78.5804 24.6943H71.3366C71.1231 24.6943 70.9133 24.7684 70.7475 24.9042C70.5764 25.04 70.4635 25.227 70.4194 25.4369C70.2765 26.0648 69.9573 26.6362 69.4987 27.0913C69.0454 27.5499 68.474 27.8674 67.8443 28.012C67.6362 28.0561 67.4475 28.169 67.3134 28.3383C67.1776 28.5041 67.1035 28.714 67.1035 28.9274V68.9032C67.1035 69.1167 67.1776 69.3266 67.3134 69.4923C67.4475 69.6581 67.6362 69.7745 67.8443 69.8186C68.474 69.9633 69.0454 70.2808 69.4987 70.7393C69.9573 71.1944 70.2765 71.7658 70.4194 72.3937C70.4635 72.6036 70.5764 72.7906 70.7475 72.9264C70.9133 73.0622 71.1231 73.1363 71.3366 73.1363H78.6245C78.8379 73.1363 79.0478 73.0622 79.2136 72.9264C79.3794 72.7906 79.4975 72.6036 79.5399 72.3937C79.6845 71.7658 80.0037 71.1944 80.4623 70.7393C80.9156 70.2808 81.4871 69.9633 82.115 69.8186C82.3249 69.7745 82.5118 69.6581 82.6476 69.4923C82.7834 69.3266 82.8575 69.1167 82.8575 68.9032V62.7054C82.8522 62.3261 82.7005 61.9593 82.4289 61.6894C82.1644 61.4231 81.7975 61.2696 81.4165 61.2661C81.226 61.2749 81.0285 61.2432 80.8451 61.1779C80.6669 61.1091 80.5011 61.0033 80.3618 60.8693C80.2207 60.7335 80.1131 60.5712 80.039 60.3931C79.9632 60.2131 79.9297 60.0174 79.9332 59.8251Z" fill="#BEF8FF"/>
<path d="M74.9595 38.6611C76.0936 38.6611 77.009 37.744 77.009 36.6099C77.009 35.4758 76.0936 34.5586 74.9595 34.5586C73.8236 34.5586 72.9082 35.4758 72.9082 36.6099C72.9082 37.744 73.8236 38.6611 74.9595 38.6611Z" fill="#6BF0FF"/>
<path opacity="0.5" d="M78.2758 56.3779C78.3676 56.3779 78.4593 56.3956 78.5422 56.4308C78.6286 56.4661 78.708 56.5137 78.7732 56.579C78.8385 56.6443 78.8861 56.7236 78.9214 56.8065C78.9567 56.8929 78.9743 56.9847 78.9743 57.0764V68.3363C78.9743 68.428 78.9567 68.5197 78.9214 68.6026C78.8861 68.689 78.8385 68.7684 78.7732 68.8337C78.708 68.8989 78.6286 68.9466 78.5422 68.9818C78.4593 69.0171 78.3676 69.0347 78.2758 69.0347C78.1841 69.0347 78.0924 69.0171 78.006 68.9818C77.9231 68.9466 77.8437 68.8989 77.7785 68.8337C77.7132 68.7684 77.6656 68.689 77.6303 68.6026C77.595 68.5197 77.5774 68.428 77.5774 68.3363V57.0764C77.5774 56.9847 77.595 56.8929 77.6303 56.8065C77.6656 56.7236 77.7132 56.6443 77.7785 56.579C77.8437 56.5137 77.9231 56.4661 78.006 56.4308C78.0924 56.3956 78.1841 56.3779 78.2758 56.3779Z" fill="#6BF0FF"/>
<path d="M72.6457 59.26C71.9649 59.26 71.2982 59.4593 70.7303 59.8403C70.1623 60.2195 69.7214 60.7557 69.4603 61.3889C69.1975 62.0168 69.1323 62.7117 69.2646 63.3784C69.3986 64.0469 69.7267 64.6624 70.2064 65.1457C70.6914 65.6254 71.307 65.9535 71.9737 66.0893C72.6422 66.2198 73.3353 66.1546 73.9632 65.8918C74.5964 65.6307 75.1326 65.1898 75.5136 64.6219C75.8928 64.0557 76.0939 63.3872 76.0939 62.7064C76.0974 62.2531 76.011 61.8033 75.8364 61.3836C75.6653 60.9656 75.4078 60.5811 75.0903 60.2636C74.7675 59.939 74.3865 59.6868 73.9685 59.5157C73.5488 59.3429 73.099 59.2547 72.6457 59.26ZM72.6457 64.4525C72.3018 64.4525 71.9649 64.3467 71.6774 64.1597C71.3899 63.9675 71.1659 63.6923 71.0319 63.3749C70.8996 63.0556 70.8661 62.7064 70.9348 62.366C71.0001 62.0256 71.1659 61.7169 71.4111 61.4718C71.6545 61.2266 71.9649 61.0608 72.3053 60.9955C72.6457 60.9268 72.9949 60.9603 73.3142 61.0926C73.6317 61.2266 73.9068 61.4506 74.0991 61.7381C74.286 62.0221 74.3918 62.3625 74.3918 62.7064C74.3918 63.1685 74.2031 63.6094 73.8768 63.9375C73.5488 64.2638 73.1078 64.4525 72.6457 64.4525Z" fill="#16D4E9" fill-opacity="0.91"/>
<path d="M74.9601 55.2016C78.4294 55.2016 81.2426 52.3884 81.2426 48.9191C81.2426 45.448 78.4294 42.6348 74.9601 42.6348C71.489 42.6348 68.6758 45.448 68.6758 48.9191C68.6758 52.3884 71.489 55.2016 74.9601 55.2016Z" fill="#16D4E9" fill-opacity="0.91"/>
<path opacity="0.5" d="M69.635 29.2354C69.7267 29.2354 69.8184 29.253 69.9013 29.2865C69.9877 29.3218 70.0671 29.3694 70.1324 29.4347C70.1976 29.5017 70.2452 29.5793 70.2805 29.6622C70.3158 29.7504 70.3334 29.8421 70.3334 29.932V41.192C70.3334 41.2837 70.3158 41.3754 70.2805 41.4583C70.2452 41.5447 70.1976 41.6241 70.1324 41.6893C70.0671 41.7546 69.9877 41.8022 69.9013 41.8375C69.8184 41.8728 69.7267 41.8904 69.635 41.8904C69.5433 41.8904 69.4515 41.8728 69.3651 41.8375C69.2805 41.8022 69.2029 41.7546 69.1376 41.6893C69.0723 41.6241 69.0247 41.5447 68.9894 41.4583C68.9542 41.3754 68.9365 41.2837 68.9365 41.192V29.932C68.9365 29.8421 68.9542 29.7504 68.9894 29.6622C69.0247 29.5793 69.0723 29.5017 69.1376 29.4347C69.2029 29.3694 69.2805 29.3218 69.3651 29.2865C69.4515 29.253 69.5433 29.2354 69.635 29.2354Z" fill="#6BF0FF"/>
<path d="M67.1038 25.8305C67.7317 25.8305 68.2379 25.3243 68.2379 24.6947C68.2379 24.0667 67.7317 23.5605 67.1038 23.5605C66.4759 23.5605 65.9697 24.0667 65.9697 24.6947C65.9697 25.3243 66.4759 25.8305 67.1038 25.8305Z" fill="#BEF8FF"/>
<path d="M67.1038 74.2709C67.7317 74.2709 68.2379 73.7647 68.2379 73.1368C68.2379 72.5072 67.7317 72.001 67.1038 72.001C66.4759 72.001 65.9697 72.5072 65.9697 73.1368C65.9697 73.7647 66.4759 74.2709 67.1038 74.2709Z" fill="#BEF8FF"/>
<path d="M82.7274 38.9219H85.7823V58.9107H82.7274C82.5087 58.9107 82.2953 58.8225 82.1418 58.6655C81.9849 58.5121 81.8984 58.2987 81.8984 58.08V39.7085C81.9196 39.4986 82.0149 39.3064 82.1683 39.1635C82.3217 39.0189 82.5175 38.936 82.7274 38.9219Z" fill="#BEF8FF"/>
<path d="M103.937 99.2767L93.1565 105.649C93.1565 105.649 87.4842 109.009 87.396 109.009C87.165 109.113 86.9163 109.171 86.6588 109.175C86.4048 109.18 86.1526 109.136 85.9162 109.039C85.6817 108.947 85.4682 108.808 85.2883 108.63C85.1049 108.45 84.962 108.242 84.865 108.006C83.5122 104.907 80.9812 98.797 80.1963 94.6521C80.0129 93.5127 79.9247 92.3557 79.9335 91.2039C79.9953 88.1191 80.288 85.0378 80.8066 81.9953L79.7148 81.5596C79.7113 82.0747 79.6372 82.5897 79.4979 83.0871C79.0181 85.2689 76.1379 85.8368 76.1379 84.7009C76.0762 83.6726 75.9315 82.6514 75.7005 81.6461L75.1766 80.3814L78.6248 78.5912L82.5951 79.5084L82.6391 79.422L80.7625 74.6651C80.7625 74.6651 80.3268 73.8361 79.803 72.5697C78.8858 70.5184 77.6212 67.2449 77.1415 64.2782C76.7923 61.9659 79.9335 61.7472 81.505 63.3187C82.6832 64.4528 84.4294 66.8957 85.2583 68.0756C85.5723 68.5236 85.8333 69.0087 86.0432 69.5149L88.3996 74.9702L91.9783 57.6006L101.536 70.2133C102.037 70.88 102.4 71.6402 102.593 72.4515C102.788 73.2629 102.815 74.106 102.67 74.9261L100.444 87.4947C100.266 88.486 100.45 89.5107 100.968 90.375L104.633 96.6152C104.891 97.0614 104.961 97.5923 104.831 98.0897C104.7 98.5889 104.376 99.0157 103.937 99.2767Z" fill="#BF9273"/>
<path d="M94.3348 82.2579L89.2727 76.9772L88.7489 75.7549" stroke="#AA7855" stroke-width="2" stroke-linecap="round" stroke-linejoin="round"/>
<path d="M82.814 79.9014C83.0891 81.0707 83.1897 82.2789 83.1191 83.4801L82.9022 85.4872C82.6711 87.4415 82.6094 89.4151 82.7275 91.3782C82.8581 94.1279 83.1632 98.0118 83.9057 100.324" stroke="#AA7855" stroke-width="2" stroke-linecap="round" stroke-linejoin="round"/>
</svg>
