<svg width="20" height="20" viewBox="0 0 20 20" fill="none" xmlns="http://www.w3.org/2000/svg">
<path d="M2.5 2.5L17.5 17.5" stroke="#6B7280" stroke-width="1.5" stroke-linecap="round" stroke-linejoin="round"/>
<path d="M8.82003 8.82249C8.5073 9.13501 8.33152 9.55896 8.33136 10.0011C8.3312 10.4432 8.50668 10.8673 8.8192 11.18C9.13171 11.4927 9.55566 11.6685 9.99777 11.6687C10.4399 11.6688 10.864 11.4933 11.1767 11.1808" stroke="#6B7280" stroke-width="1.5" stroke-linecap="round" stroke-linejoin="round"/>
<path d="M7.80252 4.47083C8.51704 4.26643 9.25685 4.16403 10 4.16666C13.3334 4.16666 16.1109 6.11083 18.3334 9.99999C17.685 11.1342 16.99 12.1033 16.2475 12.9067M14.4642 14.4575C13.105 15.3742 11.6184 15.8333 10 15.8333C6.66669 15.8333 3.88919 13.8892 1.66669 9.99999C2.80752 8.00416 4.09419 6.52083 5.52669 5.54916" stroke="#6B7280" stroke-width="1.5" stroke-linecap="round" stroke-linejoin="round"/>
</svg>
