<svg width="20" height="20" viewBox="0 0 20 20" fill="none" xmlns="http://www.w3.org/2000/svg">
<path d="M4.16667 9.16699C4.60869 9.16699 5.03262 9.34259 5.34518 9.65515C5.65774 9.96771 5.83333 10.3916 5.83333 10.8337V12.5003H14.1667V10.8337C14.1667 10.3916 14.3423 9.96771 14.6548 9.65515C14.9674 9.34259 15.3913 9.16699 15.8333 9.16699C16.2754 9.16699 16.6993 9.34259 17.0118 9.65515C17.3244 9.96771 17.5 10.3916 17.5 10.8337V14.167C17.5 14.609 17.3244 15.0329 17.0118 15.3455C16.6993 15.6581 16.2754 15.8337 15.8333 15.8337H4.16667C3.72464 15.8337 3.30072 15.6581 2.98816 15.3455C2.67559 15.0329 2.5 14.609 2.5 14.167V10.8337C2.5 10.3916 2.67559 9.96771 2.98816 9.65515C3.30072 9.34259 3.72464 9.16699 4.16667 9.16699V9.16699Z" stroke="#9CA3AF" stroke-width="1.5" stroke-linecap="round" stroke-linejoin="round"/>
<path d="M4.16669 9.16667V5C4.16669 4.33696 4.43008 3.70107 4.89892 3.23223C5.36776 2.76339 6.00365 2.5 6.66669 2.5H13.3334C13.9964 2.5 14.6323 2.76339 15.1011 3.23223C15.57 3.70107 15.8334 4.33696 15.8334 5V9.16667M5.00002 15.8333V17.5M15 15.8333V17.5" stroke="#9CA3AF" stroke-width="1.5" stroke-linecap="round" stroke-linejoin="round"/>
</svg>
