<svg width="33" height="10" viewBox="0 0 33 10" fill="none" xmlns="http://www.w3.org/2000/svg">
<g clip-path="url(#clip0_26_30712)">
<path d="M6.69254 10H0L1.70205 7.80384C2.37957 6.9936 2.89184 6.71642 4.37907 6.71642H19.995C20.9204 6.71642 21.0195 6.65245 21.5153 5.94883L24.655 1.19403C25.2003 0.319829 25.8448 0 26.8528 0H33L31.9424 1.81237C31.2649 2.79318 30.4552 3.13433 29.4802 3.13433H26.3075C26.0926 3.13433 26.01 3.19829 25.9274 3.3049C25.8448 3.41151 25.2003 4.39232 25.2003 4.39232H29.348L28.5383 5.71428C27.993 6.48188 27.3485 6.90832 26.3736 6.90832H23.994L22.8868 8.72068C22.1597 9.70149 21.5814 10.0426 20.309 10.0426H6.69254" fill="#0B1560"/>
</g>
<defs>
<clipPath id="clip0_26_30712">
<rect width="33" height="10" fill="white"/>
</clipPath>
</defs>
</svg>
