<svg width="14" height="14" viewBox="0 0 14 14" fill="none" xmlns="http://www.w3.org/2000/svg">
<path d="M5.83324 2.33366L6.99991 2.91699L8.16658 2.33366M6.99991 1.16699V4.95866L8.74991 5.96199M10.4579 3.65666L10.5361 4.95866L11.6246 5.67733M12.0516 4.08366L8.76799 5.97949L8.77383 7.99666M11.6246 8.32333L10.5361 9.04199L10.4579 10.344M12.0516 9.91699L8.76799 8.02116L7.02383 9.03499M8.16658 11.667L6.99991 11.0837L5.83324 11.667M6.99991 12.8337V9.04199L5.24991 8.03866M3.54191 10.344L3.46374 9.04199L2.37524 8.32333M1.94824 9.91699L5.23183 8.02116L5.22599 6.00399M2.37524 5.67733L3.46374 4.95866L3.54191 3.65666M1.94824 4.08366L5.23183 5.97949L6.97599 4.96566" stroke="#9CA3AF" stroke-linecap="round" stroke-linejoin="round"/>
</svg>
