<svg width="16" height="16" viewBox="0 0 16 16" fill="none" xmlns="http://www.w3.org/2000/svg">
<path d="M8 3.70654H14.6667" stroke="#9CA3AF" stroke-width="1.5" stroke-miterlimit="10" stroke-linecap="round" stroke-linejoin="round"/>
<path d="M9.48 1.3335H13.1867C14.3733 1.3335 14.6667 1.62683 14.6667 2.80016V5.54016C14.6667 6.7135 14.3733 7.00683 13.1867 7.00683H9.48C8.29333 7.00683 8 6.7135 8 5.54016V2.80016C8 1.62683 8.29333 1.3335 9.48 1.3335Z" stroke="#9CA3AF" stroke-width="1.5" stroke-linecap="round" stroke-linejoin="round"/>
<path d="M1.33331 11.3735H7.99998" stroke="#9CA3AF" stroke-width="1.5" stroke-miterlimit="10" stroke-linecap="round" stroke-linejoin="round"/>
<path d="M2.81331 9H6.51998C7.70665 9 7.99998 9.29333 7.99998 10.4667V13.2067C7.99998 14.38 7.70665 14.6733 6.51998 14.6733H2.81331C1.62665 14.6733 1.33331 14.38 1.33331 13.2067V10.4667C1.33331 9.29333 1.62665 9 2.81331 9Z" stroke="#9CA3AF" stroke-width="1.5" stroke-linecap="round" stroke-linejoin="round"/>
<path d="M14.6667 10C14.6667 12.58 12.58 14.6667 10 14.6667L10.7 13.5" stroke="#9CA3AF" stroke-width="1.5" stroke-linecap="round" stroke-linejoin="round"/>
<path d="M1.33331 6.00016C1.33331 3.42016 3.41998 1.3335 5.99998 1.3335L5.29999 2.50016" stroke="#9CA3AF" stroke-width="1.5" stroke-linecap="round" stroke-linejoin="round"/>
</svg>
