<svg width="20" height="20" viewBox="0 0 20 20" fill="none" xmlns="http://www.w3.org/2000/svg">
<path d="M12.5 4.16602C12.5 2.7853 11.3807 1.66602 10 1.66602C8.61929 1.66602 7.5 2.7853 7.5 4.16602V8.33268C7.5 9.71339 8.61929 10.8327 10 10.8327C11.3807 10.8327 12.5 9.71339 12.5 8.33268V4.16602Z" stroke="white" stroke-width="1.5" stroke-linecap="round" stroke-linejoin="round"/>
<path d="M4.16675 8.33203C4.16675 9.87913 4.78133 11.3629 5.87529 12.4568C6.96925 13.5508 8.45299 14.1654 10.0001 14.1654C11.5472 14.1654 13.0309 13.5508 14.1249 12.4568C15.2188 11.3629 15.8334 9.87913 15.8334 8.33203M6.66675 17.4987H13.3334M10.0001 14.1654V17.4987" stroke="white" stroke-width="1.5" stroke-linecap="round" stroke-linejoin="round"/>
</svg>
