<svg width="8" height="12" viewBox="0 0 8 12" fill="none" xmlns="http://www.w3.org/2000/svg">
<path d="M6.57097 0.984678C5.84516 0.348387 4.8871 0 3.87097 0C2.85484 0 1.89677 0.350807 1.17097 0.984678C0.416129 1.64516 0 2.53306 0 3.48387V3.66774C0 3.77419 0.0870968 3.86129 0.193548 3.86129H1.35484C1.46129 3.86129 1.54839 3.77419 1.54839 3.66774V3.48387C1.54839 2.41694 2.59113 1.54839 3.87097 1.54839C5.15081 1.54839 6.19355 2.41694 6.19355 3.48387C6.19355 4.23629 5.66129 4.92581 4.83629 5.24274C4.32339 5.43871 3.8879 5.78226 3.57581 6.23226C3.25887 6.69193 3.09435 7.24355 3.09435 7.80242V8.32258C3.09435 8.42903 3.18145 8.51613 3.2879 8.51613H4.44919C4.55565 8.51613 4.64274 8.42903 4.64274 8.32258V7.77339C4.64399 7.53852 4.71599 7.30948 4.84934 7.11614C4.9827 6.92279 5.17122 6.77412 5.39032 6.68952C6.81774 6.14032 7.73952 4.88226 7.73952 3.48387C7.74194 2.53306 7.32581 1.64516 6.57097 0.984678ZM2.90323 11.0323C2.90323 11.2889 3.00518 11.5351 3.18667 11.7166C3.36816 11.898 3.61431 12 3.87097 12C4.12763 12 4.37378 11.898 4.55527 11.7166C4.73675 11.5351 4.83871 11.2889 4.83871 11.0323C4.83871 10.7756 4.73675 10.5294 4.55527 10.348C4.37378 10.1665 4.12763 10.0645 3.87097 10.0645C3.61431 10.0645 3.36816 10.1665 3.18667 10.348C3.00518 10.5294 2.90323 10.7756 2.90323 11.0323Z" fill="#94F4FF"/>
</svg>
