<svg width="20" height="20" viewBox="0 0 20 20" fill="none" xmlns="http://www.w3.org/2000/svg">
<path d="M14.1666 6.66732V4.16732C14.1666 3.9463 14.0788 3.73434 13.9225 3.57806C13.7662 3.42178 13.5543 3.33398 13.3333 3.33398H4.99992C4.55789 3.33398 4.13397 3.50958 3.82141 3.82214C3.50885 4.1347 3.33325 4.55862 3.33325 5.00065M3.33325 5.00065C3.33325 5.44268 3.50885 5.8666 3.82141 6.17916C4.13397 6.49172 4.55789 6.66732 4.99992 6.66732H14.9999C15.2209 6.66732 15.4329 6.75512 15.5892 6.9114C15.7455 7.06768 15.8333 7.27964 15.8333 7.50065V10.0007M3.33325 5.00065V15.0007C3.33325 15.4427 3.50885 15.8666 3.82141 16.1792C4.13397 16.4917 4.55789 16.6673 4.99992 16.6673H14.9999C15.2209 16.6673 15.4329 16.5795 15.5892 16.4232C15.7455 16.267 15.8333 16.055 15.8333 15.834V13.334" stroke="white" stroke-width="1.5" stroke-linecap="round" stroke-linejoin="round"/>
<path d="M16.6665 10V13.3333H13.3332C12.8911 13.3333 12.4672 13.1577 12.1547 12.8452C11.8421 12.5326 11.6665 12.1087 11.6665 11.6667C11.6665 11.2246 11.8421 10.8007 12.1547 10.4882C12.4672 10.1756 12.8911 10 13.3332 10H16.6665Z" stroke="white" stroke-width="1.5" stroke-linecap="round" stroke-linejoin="round"/>
</svg>
