<svg width="36" height="10" viewBox="0 0 36 10" fill="none" xmlns="http://www.w3.org/2000/svg">
<g clip-path="url(#clip0_26_30701)">
<path d="M11.0379 6.24634C10.9431 6.03718 10.8061 5.84793 10.6691 5.67861C10.5322 5.50929 10.3531 5.35988 10.1845 5.24036C10.0897 5.1806 9.99486 5.1308 9.88951 5.081C9.83683 5.05112 9.78415 5.0312 9.73147 5.01128C9.78415 4.9814 9.83683 4.96148 9.88951 4.9316C9.98433 4.89176 10.0791 4.83199 10.1845 4.77223C10.3531 4.65271 10.5322 4.50331 10.6691 4.33399C10.8061 4.17462 10.9431 3.97542 11.0379 3.76626C11.1327 3.54714 11.2065 3.32801 11.2591 3.08897C11.2802 2.9296 11.3013 2.76028 11.3013 2.61088C11.3013 2.54116 11.2907 2.46148 11.2907 2.3818C11.2697 2.18259 11.2275 1.99335 11.1538 1.79415C11.0906 1.59494 10.9957 1.41566 10.8798 1.24634C10.764 1.07702 10.6165 0.907694 10.469 0.768252C10.3109 0.618849 10.1213 0.489368 9.94219 0.379806C9.73147 0.270244 9.52076 0.170642 9.28898 0.110881C9.04666 0.0511197 8.80434 0.0112791 8.55149 0.0112791C8.29864 0.0013189 8.05632 0.0212398 7.82454 0.0710406C7.59276 0.120841 7.38204 0.200522 7.18187 0.310084C6.97116 0.409685 6.80259 0.539169 6.64456 0.678611C6.49706 0.818053 6.3601 0.987375 6.25474 1.16666C6.15992 1.3559 6.08617 1.54514 6.04403 1.75431C6.02296 1.86387 6.01242 1.97343 6.01242 2.08299C6.01242 2.17263 6.02296 2.25231 6.03349 2.35192C5.82278 2.24235 5.62261 2.14275 5.4119 2.07303C5.14851 2.00331 4.87458 1.95351 4.56905 1.94355C4.28459 1.94355 4.0212 1.96347 3.76835 2.02323C3.52603 2.07303 3.30478 2.15271 3.08354 2.27224C2.87283 2.37184 2.68319 2.50132 2.50408 2.64076C2.37765 2.7304 2.25123 2.84992 2.13534 2.95949C2.13534 2.95949 1.95623 3.11885 1.86141 3.22841C1.76659 3.33797 1.67177 3.45749 1.55588 3.58698L1.3241 3.86586C1.26089 3.94554 1.19767 4.01526 1.12392 4.09494C1.0291 4.19455 0.923748 4.30411 0.818392 4.40371C0.649823 4.56307 0.460184 4.72243 0.249473 4.84196C0.217866 4.87184 0.175723 4.90172 0.123045 4.92164C0.101974 4.94156 0.0703684 4.95152 0.0387618 4.97144C0.0176907 4.9814 -0.013916 5.00132 -0.013916 5.0312C-0.013916 5.06108 0.0176907 5.07104 0.0387618 5.09096C0.0703684 5.10092 0.101974 5.11088 0.123045 5.1308C0.175723 5.16068 0.217866 5.1806 0.249473 5.21048C0.47072 5.33 0.649823 5.48937 0.818392 5.64873C0.923748 5.74833 1.0291 5.85789 1.12392 5.95749C1.18714 6.02722 1.25035 6.09694 1.3241 6.18658L1.55588 6.46546C1.66124 6.59494 1.76659 6.72443 1.86141 6.82403C1.9457 6.92363 2.13534 7.09295 2.13534 7.09295C2.25123 7.21247 2.37765 7.32203 2.50408 7.41168C2.68319 7.55112 2.88336 7.69056 3.08354 7.7802C3.30478 7.88976 3.52603 7.97941 3.76835 8.02921C4.0212 8.08897 4.28459 8.10889 4.56905 8.10889C4.87458 8.09893 5.14851 8.05909 5.4119 7.97941C5.62261 7.91964 5.82278 7.82004 6.03349 7.70052C6.02296 7.79016 6.01242 7.86984 6.01242 7.96945C6.01242 8.07901 6.02296 8.18857 6.04403 8.29813C6.07564 8.5073 6.14938 8.69654 6.25474 8.88578C6.3601 9.07502 6.49706 9.23439 6.64456 9.37383C6.80259 9.51327 6.98169 9.65271 7.18187 9.74235C7.38204 9.84196 7.59276 9.9316 7.82454 9.9814C8.05632 10.0312 8.29864 10.0511 8.55149 10.0412C8.80434 10.0412 9.04666 10.0013 9.28898 9.94156C9.52076 9.87184 9.73147 9.79215 9.94219 9.67263C10.1213 9.56307 10.3109 9.43359 10.469 9.28419C10.6165 9.14474 10.764 8.97542 10.8798 8.8061C10.9852 8.63678 11.0906 8.44753 11.1538 8.25829C11.2275 8.05909 11.2697 7.86984 11.2907 7.67064C11.2907 7.60092 11.3013 7.52124 11.3013 7.44156C11.3013 7.29216 11.2802 7.12283 11.2591 6.96347C11.217 6.68458 11.1432 6.46546 11.0379 6.24634Z" fill="#F5C300"/>
<path d="M10.4268 6.47526C10.3425 6.28601 10.2161 6.12665 10.0791 5.97725C9.95269 5.83781 9.77358 5.69837 9.60501 5.59876C9.42591 5.49916 9.22573 5.40952 9.03609 5.35972C8.81485 5.29996 8.60414 5.27008 8.38289 5.27008C8.14057 5.27008 7.90879 5.29 7.67701 5.34976C7.4979 5.3896 7.30826 5.44936 7.13969 5.52904C6.98166 5.59876 6.83416 5.67844 6.6972 5.78801C6.56024 5.87765 6.43381 5.97725 6.30738 6.06689C6.19149 6.15653 6.06507 6.25613 5.93864 6.32585C5.81221 6.40554 5.66472 6.4653 5.52775 6.52506C5.38026 6.5649 5.21169 6.59478 5.04312 6.59478C4.82187 6.59478 4.60062 6.55494 4.38991 6.47526C4.18974 6.39558 4.01063 6.26609 3.86313 6.12665C3.71564 5.98721 3.58921 5.79797 3.50493 5.61868C3.43118 5.41948 3.39957 5.22028 3.39957 5.02107C3.39957 4.81191 3.43118 4.61271 3.50493 4.41351C3.58921 4.22426 3.71564 4.05494 3.86313 3.90554C4.01063 3.76609 4.20027 3.63661 4.38991 3.55693C4.60062 3.47725 4.82187 3.43741 5.04312 3.43741C5.21169 3.43741 5.38026 3.46729 5.52775 3.50713C5.66472 3.55693 5.81221 3.61669 5.93864 3.70633C6.06507 3.78602 6.19149 3.8657 6.30738 3.9653C6.43381 4.05494 6.56024 4.1645 6.6972 4.24418C6.83416 4.34378 6.98166 4.43343 7.13969 4.50315C7.30826 4.58283 7.4979 4.65255 7.67701 4.70235C7.90879 4.75215 8.14057 4.77207 8.38289 4.77207C8.60414 4.77207 8.81485 4.74219 9.03609 4.68243C9.23627 4.63263 9.42591 4.55295 9.60501 4.44338C9.77358 4.34378 9.95269 4.20434 10.0791 4.0649C10.2161 3.9155 10.3425 3.74618 10.4268 3.56689C10.5111 3.36769 10.5743 3.16849 10.5954 2.95932C10.627 2.73024 10.6164 2.51111 10.5743 2.28203C10.5321 2.07287 10.4584 1.88362 10.3425 1.68442C10.2477 1.5151 10.1107 1.34578 9.96322 1.20633C9.81573 1.07685 9.63662 0.947369 9.45751 0.857727C9.26787 0.768086 9.0677 0.698365 8.85699 0.658524C8.62521 0.618684 8.41449 0.598765 8.18271 0.628645C7.96146 0.648565 7.76129 0.708324 7.56111 0.797966C7.38201 0.887607 7.20291 1.00713 7.06595 1.14657C6.92898 1.28601 6.81309 1.45534 6.72881 1.63462C6.65506 1.80394 6.60238 2.00315 6.59185 2.20235C6.58131 2.42147 6.61292 2.62068 6.67613 2.81988C6.67613 2.84976 6.68667 2.86968 6.6972 2.89956C6.6972 2.90952 6.70773 2.91948 6.70773 2.92944C6.71827 2.94936 6.71827 2.95932 6.72881 2.97924C6.72881 2.97924 6.73934 2.9892 6.74988 2.9892C6.77095 2.9892 6.77095 2.97924 6.77095 2.96928C6.78148 2.9394 6.78148 2.90952 6.78148 2.87964C6.79202 2.78004 6.82362 2.67048 6.86577 2.57088C6.93952 2.40155 7.07648 2.24219 7.24505 2.13263C7.41362 2.03303 7.62433 1.97327 7.8245 1.96331C8.04575 1.95335 8.267 1.98322 8.46717 2.08283C8.64628 2.16251 8.80431 2.31191 8.89913 2.47127C8.99395 2.63064 9.03609 2.8398 9.03609 3.039C9.03609 3.24817 8.97288 3.43741 8.86752 3.61669C8.76217 3.78602 8.5936 3.93542 8.40396 4.0151C8.22485 4.10474 7.99307 4.14458 7.78236 4.12466C7.63486 4.10474 7.48737 4.0649 7.36094 4.0151C7.22398 3.94538 7.08701 3.87565 6.97112 3.77605C6.8447 3.68641 6.70774 3.57685 6.59185 3.47725C6.46542 3.37765 6.31792 3.25813 6.19149 3.16849C6.04399 3.05892 5.88596 2.95932 5.73846 2.87964C5.5699 2.79 5.38025 2.72028 5.20115 2.66052C4.9799 2.61072 4.76919 2.58083 4.54794 2.58083C4.31616 2.58083 4.09492 2.59079 3.87367 2.6406C3.69457 2.68044 3.50492 2.7402 3.33636 2.8398C3.18886 2.90952 3.03083 3.00912 2.9044 3.11869C2.76744 3.22825 2.64101 3.34777 2.52512 3.46729C2.40923 3.58681 2.29334 3.72625 2.18798 3.85574C2.09316 3.97526 1.97727 4.1147 1.87191 4.23422C1.76656 4.35374 1.64013 4.48323 1.52424 4.59279C1.40835 4.71231 1.27139 4.82187 1.13442 4.90155C1.10282 4.92147 1.08175 4.94139 1.05014 4.95135C1.02907 4.97127 1.008 4.97127 0.986928 4.98123C0.976392 4.99119 0.955322 5.01111 0.955322 5.03103C0.955322 5.04099 0.976392 5.06091 0.986928 5.07087C1.008 5.08083 1.02907 5.0908 1.05014 5.10076C1.08175 5.11072 1.10282 5.13064 1.13442 5.15056C1.27139 5.23024 1.40835 5.34976 1.52424 5.45932C1.64013 5.56888 1.76656 5.69836 1.87191 5.81789C1.97727 5.93741 2.09316 6.07685 2.18798 6.20633C2.29334 6.32586 2.40923 6.4653 2.52512 6.58482C2.64101 6.70434 2.76744 6.82386 2.9044 6.93342C3.03083 7.03303 3.18886 7.14259 3.33636 7.21231C3.50492 7.30195 3.69457 7.36171 3.87367 7.41151C4.09492 7.46131 4.31616 7.48123 4.54794 7.47127C4.76919 7.47127 4.9799 7.44139 5.20115 7.39159C5.38025 7.34179 5.5699 7.27207 5.73846 7.17247C5.88596 7.09279 6.04399 7.00315 6.19149 6.88362C6.31792 6.79398 6.46542 6.67446 6.59185 6.57486C6.70774 6.47526 6.8447 6.36569 6.97112 6.27605C7.08701 6.18641 7.22398 6.11669 7.36094 6.04697C7.48737 5.98721 7.63486 5.94737 7.78236 5.93741C7.99307 5.91749 8.21432 5.94737 8.40396 6.03701C8.60413 6.11669 8.76217 6.26609 8.86752 6.43542C8.97288 6.60474 9.03609 6.80394 9.03609 7.0131C9.03609 7.21231 8.99395 7.41151 8.89913 7.5908C8.80431 7.75016 8.64628 7.8896 8.46717 7.96928C8.267 8.06888 8.04575 8.09876 7.8245 8.0888C7.61379 8.07884 7.41362 8.01908 7.24505 7.91948C7.07648 7.80992 6.93952 7.65056 6.86577 7.48123C6.82362 7.38163 6.79202 7.27207 6.78148 7.17247C6.78148 7.14259 6.78148 7.11271 6.77095 7.08283C6.77095 7.08283 6.77095 7.06291 6.74988 7.06291C6.73934 7.06291 6.72881 7.07287 6.72881 7.08283C6.71827 7.09279 6.71827 7.10275 6.70773 7.12267C6.70773 7.13263 6.6972 7.14259 6.6972 7.15255C6.68667 7.18243 6.67613 7.20235 6.67613 7.23223C6.61292 7.43143 6.58131 7.63064 6.59185 7.84976C6.60238 8.04896 6.65506 8.2382 6.72881 8.41749C6.81309 8.59677 6.91845 8.7661 7.06595 8.89558C7.20291 9.04498 7.38201 9.1645 7.56111 9.25414C7.76129 9.34378 7.96146 9.40354 8.18271 9.42346C8.41449 9.45335 8.62521 9.44339 8.85699 9.39358C9.0677 9.3637 9.25734 9.29398 9.45751 9.19438C9.63662 9.10474 9.81573 8.97526 9.96322 8.84578C10.1107 8.70633 10.2477 8.53701 10.3425 8.36769C10.4479 8.16848 10.5216 7.97924 10.5743 7.76012C10.6164 7.54099 10.627 7.32187 10.5954 7.09279C10.5743 6.87366 10.5111 6.6645 10.4268 6.47526Z" fill="#370E62"/>
<path d="M7.27672 5.01137C7.27672 5.00141 7.27672 4.99145 7.26618 4.99145C7.00279 4.93169 6.77101 4.79225 6.54976 4.64284C6.31798 4.49344 6.10727 4.31416 5.86495 4.16476C5.63317 4.02532 5.38032 3.88587 5.09586 3.87591C4.86407 3.85599 4.64283 3.90579 4.44265 4.00539C4.26355 4.09504 4.10551 4.24444 4.01069 4.41376C3.90534 4.58308 3.85266 4.79225 3.85266 5.00141V5.01137C3.85266 5.22053 3.90534 5.41974 4.01069 5.59902C4.10551 5.76834 4.26355 5.91775 4.44265 6.00739C4.64283 6.10699 4.86407 6.15679 5.09586 6.14683C5.38032 6.12691 5.63317 5.99743 5.86495 5.84802C6.10727 5.69862 6.31798 5.51934 6.54976 5.36993C6.77101 5.22053 7.00279 5.08109 7.26618 5.02133C7.27672 5.02133 7.27672 5.01137 7.27672 5.01137Z" fill="#B6007D"/>
<path d="M31.087 8.06892H33.6893C33.1731 7.78008 33.0045 7.50119 32.6779 6.79402C30.8868 2.86972 30.2547 1.51514 30.2547 1.51514C30.2547 1.51514 29.8649 2.14262 28.5901 2.38167C28.6744 2.43147 28.7692 2.60079 28.7692 2.76016C28.7692 2.85976 28.7481 3.00916 28.6638 3.18844L26.9571 6.78406C26.5989 7.54103 26.3882 7.86972 25.8825 8.02908C25.4926 7.80996 25.4084 7.61075 25.4084 6.85378V3.13864C25.4084 2.36175 25.4926 2.15259 25.9141 1.93346H23.5962C24.0177 2.16255 24.102 2.35179 24.102 3.13864V4.40358H20.8781V3.13864C20.8781 2.35179 20.9518 2.15259 21.3838 1.93346H19.0554C19.4874 2.16255 19.5611 2.35179 19.5611 3.13864V6.85378C19.5611 7.64064 19.4874 7.83984 19.0554 8.05896H21.3838C20.9518 7.82988 20.8781 7.64064 20.8781 6.85378V5.26016H24.102V6.85378C24.102 7.63067 24.0177 7.83984 23.5857 8.05896H28.1792C27.9474 7.93944 27.7789 7.76016 27.7789 7.53107C27.7789 7.37171 27.8421 7.25219 27.9896 6.93346L28.3583 6.11673H30.929L31.3188 7.03306C31.4242 7.28207 31.4663 7.38167 31.4663 7.53107C31.4558 7.77012 31.2556 7.95936 31.087 8.06892ZM28.6849 5.36972L29.6542 3.16852L30.5919 5.36972H28.6849Z" fill="#370E62"/>
<path d="M35.5014 6.86368V3.14854C35.5014 2.36169 35.5857 2.17244 35.9966 1.94336H33.6893C34.1108 2.1824 34.1845 2.36169 34.1845 3.14854V6.86368C34.1845 7.65053 34.1108 7.83977 33.6893 8.06886H35.9966C35.5857 7.82981 35.5014 7.65053 35.5014 6.86368Z" fill="#370E62"/>
<path d="M18.8553 1.51542C18.613 1.6947 18.2337 1.93375 17.2118 1.93375H14.3145C13.7456 1.93375 13.5138 1.61502 13.4084 1.42578C13.1872 1.89391 12.6288 2.56124 12.2811 2.84012H14.9993C14.9993 2.92976 14.9993 3.03933 14.9993 3.14889V6.79431C14.9993 7.58116 14.8939 7.83016 14.4831 8.06921H16.8114C16.39 7.83016 16.3162 7.65088 16.3162 6.86403V3.14889C16.3162 3.03933 16.3057 2.9696 16.3057 2.84012H16.7061C17.275 2.84012 17.5805 2.78036 17.8228 2.70068C18.4339 2.48156 18.8132 2.06323 18.8553 1.51542Z" fill="#370E62"/>
</g>
<defs>
<clipPath id="clip0_26_30701">
<rect width="36" height="10" fill="white"/>
</clipPath>
</defs>
</svg>
