<svg width="26" height="26" viewBox="0 0 26 26" fill="none" xmlns="http://www.w3.org/2000/svg">
<path d="M9.74992 4.33337H5.41659C4.81828 4.33337 4.33325 4.8184 4.33325 5.41671V9.75004C4.33325 10.3483 4.81828 10.8334 5.41659 10.8334H9.74992C10.3482 10.8334 10.8333 10.3483 10.8333 9.75004V5.41671C10.8333 4.8184 10.3482 4.33337 9.74992 4.33337Z" stroke="#16D4E9" stroke-opacity="0.91" stroke-width="1.5" stroke-linecap="round" stroke-linejoin="round"/>
<path d="M20.5832 4.33337H16.2498C15.6515 4.33337 15.1665 4.8184 15.1665 5.41671V9.75004C15.1665 10.3483 15.6515 10.8334 16.2498 10.8334H20.5832C21.1815 10.8334 21.6665 10.3483 21.6665 9.75004V5.41671C21.6665 4.8184 21.1815 4.33337 20.5832 4.33337Z" stroke="#16D4E9" stroke-opacity="0.91" stroke-width="1.5" stroke-linecap="round" stroke-linejoin="round"/>
<path d="M9.74992 15.1667H5.41659C4.81828 15.1667 4.33325 15.6518 4.33325 16.2501V20.5834C4.33325 21.1817 4.81828 21.6667 5.41659 21.6667H9.74992C10.3482 21.6667 10.8333 21.1817 10.8333 20.5834V16.2501C10.8333 15.6518 10.3482 15.1667 9.74992 15.1667Z" stroke="#16D4E9" stroke-opacity="0.91" stroke-width="1.5" stroke-linecap="round" stroke-linejoin="round"/>
<path d="M20.5832 15.1667H16.2498C15.6515 15.1667 15.1665 15.6518 15.1665 16.2501V20.5834C15.1665 21.1817 15.6515 21.6667 16.2498 21.6667H20.5832C21.1815 21.6667 21.6665 21.1817 21.6665 20.5834V16.2501C21.6665 15.6518 21.1815 15.1667 20.5832 15.1667Z" stroke="#16D4E9" stroke-opacity="0.91" stroke-width="1.5" stroke-linecap="round" stroke-linejoin="round"/>
</svg>
