<svg width="20" height="20" viewBox="0 0 20 20" fill="none" xmlns="http://www.w3.org/2000/svg">
<path d="M4.16667 5.83398H5C5.44203 5.83398 5.86595 5.65839 6.17851 5.34583C6.49107 5.03327 6.66667 4.60935 6.66667 4.16732C6.66667 3.9463 6.75446 3.73434 6.91074 3.57806C7.06702 3.42178 7.27899 3.33398 7.5 3.33398H12.5C12.721 3.33398 12.933 3.42178 13.0893 3.57806C13.2455 3.73434 13.3333 3.9463 13.3333 4.16732C13.3333 4.60935 13.5089 5.03327 13.8215 5.34583C14.134 5.65839 14.558 5.83398 15 5.83398H15.8333C16.2754 5.83398 16.6993 6.00958 17.0118 6.32214C17.3244 6.6347 17.5 7.05862 17.5 7.50065V15.0007C17.5 15.4427 17.3244 15.8666 17.0118 16.1792C16.6993 16.4917 16.2754 16.6673 15.8333 16.6673H4.16667C3.72464 16.6673 3.30072 16.4917 2.98816 16.1792C2.67559 15.8666 2.5 15.4427 2.5 15.0007V7.50065C2.5 7.05862 2.67559 6.6347 2.98816 6.32214C3.30072 6.00958 3.72464 5.83398 4.16667 5.83398" stroke="#9CA3AF" stroke-width="1.5" stroke-linecap="round" stroke-linejoin="round"/>
<path d="M10 13.334C11.3807 13.334 12.5 12.2147 12.5 10.834C12.5 9.45327 11.3807 8.33398 10 8.33398C8.61929 8.33398 7.5 9.45327 7.5 10.834C7.5 12.2147 8.61929 13.334 10 13.334Z" stroke="#9CA3AF" stroke-width="1.5" stroke-linecap="round" stroke-linejoin="round"/>
</svg>
