<svg width="31" height="20" viewBox="0 0 31 20" fill="none" xmlns="http://www.w3.org/2000/svg">
<path d="M29.6222 13.8002V13.6669C29.6222 13.5669 29.5878 13.5002 29.45 13.5002H29.3811V13.8669H29.4844C29.5189 13.8669 29.5878 13.8669 29.6222 13.8002ZM29.9667 14.3669H29.76L29.6222 14.1669C29.5189 14.0336 29.45 13.9336 29.3811 13.9336V14.3669H29.2089V13.4336H29.4844C29.76 13.4336 29.8633 13.5002 29.8633 13.6669L29.7944 13.8669L29.6222 13.9336C29.6911 13.9336 29.7256 14.0002 29.7944 14.1002L29.9322 14.3669M30.0011 13.3669C29.8978 13.2669 29.6911 13.2002 29.5189 13.2002C29.3467 13.2002 29.1744 13.2669 29.0367 13.4002C28.9069 13.5233 28.8326 13.691 28.83 13.8669C28.83 14.0437 28.9026 14.2133 29.0318 14.3383C29.161 14.4633 29.3362 14.5336 29.5189 14.5336C29.7256 14.5336 29.8633 14.4669 30.0011 14.3336C30.1389 14.2336 30.2078 14.0002 30.2078 13.8669C30.2078 13.7002 30.1389 13.5336 30.0011 13.4002M30.1044 14.4002C29.9322 14.5669 29.76 14.6336 29.5189 14.6336C29.2778 14.6336 29.1056 14.5669 28.9333 14.4002C28.8583 14.3317 28.7985 14.249 28.7576 14.1573C28.7167 14.0656 28.6957 13.9668 28.6957 13.8669C28.6957 13.767 28.7167 13.6682 28.7576 13.5765C28.7985 13.4848 28.8583 13.4021 28.9333 13.3336C29.1056 13.1669 29.2778 13.0669 29.5189 13.0669C29.76 13.0669 29.9322 13.1669 30.1044 13.3336C30.2767 13.4669 30.38 13.6669 30.38 13.8669C30.38 13.9704 30.3551 14.0725 30.3073 14.165C30.2594 14.2576 30.19 14.3381 30.1044 14.4002ZM27.4867 14.2669C26.8322 14.2669 26.2467 14.7002 26.2811 15.2336C26.2811 15.6669 26.4878 16.0002 26.8667 16.2336L27.4178 16.5669C27.7278 16.7669 27.8311 16.9669 27.8311 17.1669C27.8311 17.4336 27.59 17.8002 27.0389 17.8002C26.4878 17.8002 26.2811 17.2669 26.2811 17.2669V17.9336C26.2811 17.9336 26.66 18.2669 27.2456 18.2669C28.0033 18.2669 28.7267 17.7002 28.7267 16.9336C28.7328 16.6904 28.647 16.4533 28.4856 16.2669C28.2444 15.9336 27.7967 15.7002 27.4522 15.5002C27.2111 15.4002 27.1078 15.2002 27.1078 15.1002C27.1078 14.9669 27.2111 14.7336 27.7622 14.7336C28.2444 14.7336 28.4511 15.2669 28.4511 15.2669V14.6002C28.4511 14.6002 28.1067 14.2669 27.4867 14.2669ZM18.7378 14.2669C18.0833 14.2669 17.7389 14.6002 17.7389 14.6002V15.2669C17.7389 15.2669 17.9456 14.7336 18.4967 14.7336C19.0478 14.7336 19.0822 15.0002 19.0822 15.1336C19.0822 15.1336 19.1511 15.3002 18.9789 15.5336C18.7378 15.9669 16.8089 16.0669 17.1189 17.4669C17.2567 18.0669 17.6356 18.2336 18.0833 18.2336C18.6344 18.2336 18.8756 18.0002 19.0133 17.7669C19.0822 18.2002 19.3578 18.2336 19.3578 18.2336H20.3911C20.3911 18.2336 19.9778 18.0002 19.9778 17.4336V15.2336C19.9778 14.7336 19.2889 14.2669 18.6689 14.2669M18.3589 17.7669C18.0833 17.7669 17.9456 17.5336 17.9456 17.3002C17.9456 16.3002 18.7378 16.1669 18.9789 15.9002V17.5669C18.8756 17.6336 18.7722 17.7669 18.3244 17.7669M13.4678 13.0002C13.1922 13.0002 12.9856 13.2336 12.9856 13.5002C12.9856 13.7336 13.2267 13.9669 13.4678 13.9669C13.7433 13.9669 13.9844 13.7336 13.9844 13.5002C13.9844 13.2336 13.7433 13.0002 13.4678 13.0002ZM24.6278 14.3336C23.4911 14.3336 22.9056 15.3002 22.9056 16.3669C22.9056 17.4669 23.6289 18.2669 24.6622 18.2669C25.5233 18.2669 25.8333 17.9336 25.8333 17.9336V17.3336C25.5578 17.7336 25.2478 17.8336 25.0067 17.8336C24.8632 17.8284 24.7224 17.7943 24.5933 17.7336C24.0767 17.5336 24.0078 16.9002 24.0078 16.9002C24.4211 16.4669 24.8689 16.5669 25.4544 15.9669C26.2811 15.1669 25.6956 14.3002 24.5933 14.3002M23.9389 16.5002C23.9389 16.5002 23.8356 14.7002 24.5589 14.6336C25.1444 14.6336 25.0067 15.4336 24.8344 15.7002C24.5589 16.2002 24.18 16.2336 23.9733 16.5002M22.01 13.4669C22.01 13.4669 21.7344 13.8336 21.2522 14.2336C20.9422 14.4669 20.3222 14.7669 20.3222 14.7669H21.0111V17.5002C21.0111 18.2336 21.3211 18.2336 21.3211 18.2336H22.3544C22.3544 18.2336 21.9756 18.0002 21.9756 17.4669V14.8002H22.2167C22.5611 14.8002 22.9056 14.9336 22.9056 14.9336V14.3336H21.9756V13.4669M15.19 14.3336H14.5011C14.5011 14.3336 14.9144 14.5002 14.9144 15.1002V17.4336C14.9144 18.2336 15.2589 18.2336 15.2589 18.2336H16.2922C16.2922 18.2336 15.9133 17.9002 15.9133 17.4336V15.5336C15.9133 15.3669 16.0167 15.2336 16.1544 15.1336C16.2922 15.0336 16.4644 15.0002 16.6367 15.0002C16.8433 15.0002 17.1189 15.1002 17.2911 15.3336V14.6002C17.2911 14.6002 17.1533 14.3002 16.74 14.3002C16.0511 14.3002 15.8789 15.1002 15.8789 15.1002C15.8444 14.4669 15.6722 14.3002 15.19 14.3002M13.2611 14.3002H12.5722C12.5722 14.3002 12.9856 14.4669 12.9856 15.1002V17.4336C12.9856 18.2002 13.33 18.2336 13.33 18.2336H14.3978C14.3978 18.2336 13.9844 17.9669 13.9844 17.4336V15.2336C13.9844 14.3336 13.4678 14.3336 13.2611 14.3336M8.78334 14.3336C7.99111 14.3336 7.78445 15.0669 7.78445 15.0669C7.78445 15.0669 7.78445 14.3336 7.09556 14.3336H6.44111C6.44111 14.3336 6.78556 14.5002 6.78556 15.1336V17.4669C6.78556 18.2336 7.13 18.2669 7.13 18.2669H8.26667C8.26667 18.2669 7.81889 17.9336 7.81889 17.4669V15.4002C7.81889 15.3002 8.02556 14.9669 8.50778 14.9669C8.71445 14.9669 8.99 15.2669 8.99 15.5669V17.4336C8.99 18.2669 9.33445 18.2669 9.33445 18.2669H10.3678C10.3678 18.2669 9.98889 17.9336 9.98889 17.4669V15.4002C9.98889 15.3002 10.1611 15.0002 10.5744 15.0002C10.9189 15.0002 11.16 15.2669 11.16 15.5336V17.4669C11.16 18.2669 11.5044 18.2669 11.5044 18.2669H12.5378C12.5378 18.2669 12.1589 18.0002 12.1589 17.4669V15.4002C12.1589 14.5669 11.47 14.3336 10.9189 14.3336C10.23 14.3336 10.0578 14.9002 9.95445 15.0669C9.81667 14.5336 9.26556 14.3002 8.85222 14.3002M4.78778 13.3336H2.23889C2.23889 13.3336 2.68667 13.6669 2.65222 14.4336V17.4336C2.65222 18.2002 2.99667 18.2336 2.99667 18.2336H5.51111C6.06222 18.2336 6.23445 17.8336 6.23445 17.6002V17.3336C6.23445 17.3336 6.09667 17.7002 5.33889 17.7002H4.13334C3.78889 17.7002 3.78889 17.3669 3.78889 17.1336V15.5002H4.65C4.92556 15.5002 5.20111 15.5669 5.44222 15.6669C5.44222 15.6669 5.13222 15.0002 4.30556 15.0002H3.78889V14.4669C3.78889 14.4669 3.78889 14.0336 3.68556 13.8669H4.44334C5.13222 13.8669 5.64889 13.8669 6.23445 14.2002C6.23445 14.2002 6.13111 13.3669 4.78778 13.3669M12.4 8.83356L11.7111 9.56689C12.2278 10.0336 12.4 10.3002 12.4689 10.5002C12.4689 10.5002 13.1922 9.93356 13.1922 9.73356C13.1922 9.40023 12.9856 9.30023 12.5033 8.83356M10.6778 7.53356H10.3333C10.3333 7.53356 10.6778 7.76689 10.6778 8.30023V10.1002C10.6778 11.2669 11.7111 12.3336 12.9167 12.3336H13.9156C14.57 12.3336 14.7767 12.2336 15.1211 11.9002L15.4656 11.5336C15.7067 11.3002 15.9478 11.1002 15.9478 10.5336V9.90023C15.9478 9.40023 15.6033 9.23356 15.4656 9.06689L15.1211 8.73356V9.93356L15.4656 10.2669C16.0511 10.7002 15.6033 11.4002 15.1211 11.4002H12.8822C11.8144 11.3669 10.9533 10.5336 10.9533 9.50023V8.53356C10.9533 7.53356 10.6778 7.53356 10.6778 7.53356ZM15.5 0.600228L14.9833 1.06689C14.7767 1.30023 14.8456 1.73356 15.2933 2.06689V3.13356C15.2933 3.20023 15.19 3.30023 15.19 3.30023C15.19 3.30023 14.6044 2.80023 14.0533 2.80023H13.1922C12.6756 2.80023 12.2278 3.23356 12.1933 3.26689C11.9522 3.53356 11.9178 4.03356 12.1933 4.26689L12.7444 4.80023C12.7444 4.80023 12.6067 3.90023 12.7444 3.30023C12.7444 3.16689 12.9167 3.00023 13.1233 3.00023C13.6056 3.33356 14.0533 3.63356 14.4667 4.00023L12.9167 5.5669C12.8478 5.63356 12.6411 5.80023 12.4344 5.80023C12.1589 5.80023 12.09 5.66689 11.9522 5.53356V6.26689C11.9522 6.53356 12.2967 6.76689 12.6067 6.76689H14.6733C14.8111 6.76689 15.0178 6.76689 15.1556 6.63356L15.81 5.93356C15.9478 5.83356 15.9822 5.70023 15.9822 5.53356V4.73356C15.9822 4.03356 15.3967 3.46689 15.3967 3.46689C15.3967 3.46689 15.5 3.33356 15.5 3.00023V2.23356C15.5 2.23356 15.7411 2.46689 15.7756 2.56689L16.1889 2.16689C16.3956 1.96689 16.0511 1.56689 15.9478 1.43356C15.5 1.00023 15.5 0.566895 15.5 0.566895M12.8822 5.83356L14.6733 4.16689C14.6733 4.16689 15.3622 4.83356 15.6378 5.26689C15.7411 5.43356 15.8789 5.83356 15.2589 5.83356H12.8822ZM13.9156 8.83356L13.1922 9.50023C13.7089 10.0002 13.8467 10.2669 13.8811 10.5002C13.95 10.4669 14.6389 9.90023 14.6389 9.70023C14.6389 9.36689 14.4322 9.26689 13.95 8.80023M11.16 4.33356H10.8156C11.0222 4.43356 11.1944 4.83356 11.1944 5.10023V6.56689C11.1944 6.93356 11.5389 8.40023 12.8478 8.40023H16.7744V10.8002C16.7744 11.1669 16.6367 11.4336 16.5333 11.5336L15.9133 12.0002H16.1889L17.2222 11.0669C17.4289 10.8669 17.7044 10.6002 17.7044 9.86689V8.36689L18.1522 7.90023L18.91 7.23356C18.91 7.83356 19.2544 8.06689 19.53 8.06689C19.6831 8.05743 19.8286 7.99878 19.9433 7.90023L20.6322 7.26689C20.9767 6.96689 21.1144 6.00023 20.3567 6.00023C19.8744 6.00023 19.3233 6.66689 19.2544 6.76689L18.91 6.43356V7.00023C18.8411 7.13356 18.5656 7.33356 18.29 7.33356H17.7389V6.73356C17.7389 6.46689 17.8422 6.13356 17.98 6.06689L18.6 5.50023H18.2556L17.0844 6.56689C16.8778 6.76689 16.74 7.20023 16.74 7.30023H12.4C11.8833 7.30023 11.5389 6.80023 11.5389 6.36689V5.26689C11.5389 4.36689 11.2978 4.30023 11.2289 4.26689M20.1844 7.46689C20.0811 7.46689 19.9778 7.46689 19.84 7.30023C19.7042 7.18518 19.588 7.0502 19.4956 6.90023C19.53 6.83356 19.7367 6.76689 19.9089 6.76689C20.0467 6.76689 20.15 6.76689 20.2533 6.86689C20.46 7.20023 20.3911 7.46689 20.15 7.46689M18.5311 8.13356V9.33356L18.91 9.76689C19.2544 10.1002 19.2544 10.7002 18.2211 11.7002C18.0489 11.8669 17.5322 12.3669 16.8089 12.3669H14.9144L16.0511 13.3002H16.7744C17.5322 13.3002 18.2211 12.9669 18.7033 12.5336C19.1167 12.1002 19.3578 11.5336 19.3578 10.9669V9.40023C19.3578 8.90023 19.0133 8.56689 18.8756 8.50023L18.5311 8.16689M18.2556 0.600228L17.1189 1.60023C17.0156 1.66689 16.7744 2.06689 16.7744 2.56689V5.50023C16.7442 5.73657 16.662 5.96389 16.5333 6.16689L15.9478 6.63356H16.1889L17.2911 5.70023C17.3944 5.53356 17.7044 5.23356 17.7044 4.70023V1.83356C17.7044 1.40023 17.9111 1.16689 18.0489 1.03356C18.0833 0.933561 18.4622 0.633561 18.5311 0.566895L18.2556 0.600228Z" fill="#DD3333"/>
</svg>
