<svg width="19" height="8" viewBox="0 0 19 8" fill="none" xmlns="http://www.w3.org/2000/svg">
<path d="M18.1022 5.85551H16.5371C16.5371 5.50127 16.249 5.21315 15.8948 5.21315H12.9793C12.4687 5.21315 12.0324 4.80149 12.0324 4.29909C12.0488 4.15093 12.057 3.99408 12.057 3.83772C12.057 1.72099 10.3356 0 8.21933 0C6.10261 0 4.38114 1.72099 4.38114 3.83772C4.38114 4.08481 4.40623 4.32371 4.44725 4.55439H1.56462C0.700268 4.55439 0 5.25418 0 6.11901C0 6.98385 0.700268 7.68364 1.56462 7.68364H17.9372H18.0935C18.5959 7.68364 18.9999 7.28018 18.9999 6.77778C19.0081 6.26718 18.6041 5.85551 18.1022 5.85551Z" fill="#41EAFD"/>
</svg>
