<svg width="20" height="20" viewBox="0 0 20 20" fill="none" xmlns="http://www.w3.org/2000/svg">
<path d="M15.8334 7.49935C15.8334 8.70768 15.475 9.81603 14.8584 10.741C13.9584 12.0744 12.5334 13.016 10.875 13.2577C10.5917 13.3077 10.3 13.3327 10 13.3327C9.70002 13.3327 9.40835 13.3077 9.12502 13.2577C7.46669 13.016 6.04169 12.0744 5.14169 10.741C4.52502 9.81603 4.16669 8.70768 4.16669 7.49935C4.16669 4.27435 6.77502 1.66602 10 1.66602C13.225 1.66602 15.8334 4.27435 15.8334 7.49935Z" stroke="#9CA3AF" stroke-width="1.5" stroke-linecap="round" stroke-linejoin="round"/>
<path d="M17.7084 15.3917L16.3334 15.7167C16.025 15.7917 15.7834 16.025 15.7167 16.3333L15.425 17.5583C15.2667 18.225 14.4167 18.425 13.975 17.9L10 13.3333L6.02503 17.9083C5.58336 18.4333 4.73336 18.2333 4.57502 17.5667L4.28336 16.3417C4.20836 16.0333 3.96669 15.7917 3.66669 15.725L2.29169 15.4C1.65836 15.25 1.43336 14.4583 1.89169 14L5.14169 10.75C6.04169 12.0833 7.46669 13.025 9.12503 13.2667C9.40836 13.3167 9.70003 13.3417 10 13.3417C10.3 13.3417 10.5917 13.3167 10.875 13.2667C12.5334 13.025 13.9584 12.0833 14.8584 10.75L18.1084 14C18.5667 14.45 18.3417 15.2417 17.7084 15.3917Z" stroke="#9CA3AF" stroke-width="1.5" stroke-linecap="round" stroke-linejoin="round"/>
<path d="M10.4833 4.98398L10.975 5.96731C11.0417 6.10064 11.2167 6.23398 11.375 6.25898L12.2667 6.40898C12.8333 6.50064 12.9667 6.91732 12.5583 7.32565L11.8667 8.0173C11.75 8.13397 11.6833 8.35898 11.725 8.52565L11.925 9.38398C12.0833 10.059 11.725 10.3256 11.125 9.9673L10.2917 9.47564C10.1417 9.38397 9.89166 9.38397 9.74166 9.47564L8.90833 9.9673C8.30833 10.3173 7.95 10.059 8.10833 9.38398L8.30833 8.52565C8.34166 8.36732 8.28333 8.13397 8.16666 8.0173L7.475 7.32565C7.06666 6.91732 7.2 6.50898 7.76666 6.40898L8.65833 6.25898C8.80833 6.23398 8.98333 6.10064 9.05 5.96731L9.54166 4.98398C9.78333 4.45065 10.2167 4.45065 10.4833 4.98398Z" stroke="#9CA3AF" stroke-width="1.5" stroke-linecap="round" stroke-linejoin="round"/>
</svg>
