<svg width="42" height="27" viewBox="0 0 42 27" fill="none" xmlns="http://www.w3.org/2000/svg">
<rect width="22.7027" height="2.30663" rx="0.836566" fill="#F1F5F9"/>
<rect y="4.61376" width="42" height="2.30663" rx="0.836566" fill="#F1F5F9"/>
<rect y="10.3795" width="42" height="16.1464" rx="1.67313" fill="#F1F5F9"/>
<path d="M7.349 21.9122L7.44843 19.2691L5.13674 20.6868L4.54017 19.6776L6.97615 18.4522L4.54017 17.2268L5.13674 16.2177L7.44843 17.6353L7.349 14.9923H8.54214L8.44271 17.6353L10.7544 16.2177L11.351 17.2268L8.91499 18.4522L11.351 19.6776L10.7544 20.6868L8.44271 19.2691L8.54214 21.9122H7.349Z" fill="#0F172A"/>
<path d="M16.4303 21.9122L16.5298 19.2691L14.2181 20.6868L13.6215 19.6776L16.0575 18.4522L13.6215 17.2268L14.2181 16.2177L16.5298 17.6353L16.4303 14.9923H17.6235L17.524 17.6353L19.8357 16.2177L20.4323 17.2268L17.9963 18.4522L20.4323 19.6776L19.8357 20.6868L17.524 19.2691L17.6235 21.9122H16.4303Z" fill="#0F172A"/>
<path d="M25.5116 21.9122L25.6111 19.2691L23.2994 20.6868L22.7028 19.6776L25.1388 18.4522L22.7028 17.2268L23.2994 16.2177L25.6111 17.6353L25.5116 14.9923H26.7048L26.6053 17.6353L28.917 16.2177L29.5136 17.2268L27.0776 18.4522L29.5136 19.6776L28.917 20.6868L26.6053 19.2691L26.7048 21.9122H25.5116Z" fill="#0F172A"/>
<path d="M34.592 21.9122L34.6914 19.2691L32.3797 20.6868L31.7831 19.6776L34.2191 18.4522L31.7831 17.2268L32.3797 16.2177L34.6914 17.6353L34.592 14.9923H35.7851L35.6857 17.6353L37.9974 16.2177L38.594 17.2268L36.158 18.4522L38.594 19.6776L37.9974 20.6868L35.6857 19.2691L35.7851 21.9122H34.592Z" fill="#0F172A"/>
</svg>
