<svg width="20" height="20" viewBox="0 0 20 20" fill="none" xmlns="http://www.w3.org/2000/svg">
<path d="M14.7138 13.8808L11.178 17.4167C10.8655 17.7289 10.4418 17.9042 10.0001 17.9042C9.55836 17.9042 9.13469 17.7289 8.82218 17.4167L5.28551 13.8808C4.3532 12.9485 3.71829 11.7606 3.46108 10.4674C3.20388 9.17419 3.33592 7.83376 3.84051 6.61561C4.34511 5.39745 5.19959 4.35628 6.29591 3.62376C7.39223 2.89123 8.68115 2.50024 9.99968 2.50024C11.3182 2.50024 12.6071 2.89123 13.7034 3.62376C14.7998 4.35628 15.6542 5.39745 16.1588 6.61561C16.6634 7.83376 16.7955 9.17419 16.5383 10.4674C16.2811 11.7606 15.6462 12.9485 14.7138 13.8808Z" fill="#16D4E9" fill-opacity="0.91" stroke="#16D4E9" stroke-opacity="0.91" stroke-width="1.5" stroke-linecap="round" stroke-linejoin="round"/>
<path d="M10 11.6666C11.3807 11.6666 12.5 10.5473 12.5 9.16663C12.5 7.78591 11.3807 6.66663 10 6.66663C8.61929 6.66663 7.5 7.78591 7.5 9.16663C7.5 10.5473 8.61929 11.6666 10 11.6666Z" fill="white"/>
</svg>
