<svg width="24" height="24" viewBox="0 0 24 24" fill="none" xmlns="http://www.w3.org/2000/svg">
<path d="M12 17C14.7614 17 17 14.7614 17 12C17 9.23858 14.7614 7 12 7C9.23858 7 7 9.23858 7 12C7 14.7614 9.23858 17 12 17Z" stroke="#9CA3AF" stroke-width="1.5" stroke-linecap="round" stroke-linejoin="round"/>
<path d="M12 7V3M11 3H13M15.536 8.464L18.364 5.636M17.657 4.929L19.071 6.343M17 12H21M21 11V13M15.536 15.536L18.364 18.364M19.071 17.657L17.657 19.071M12 17V21M13 21H11M8.464 15.536L5.636 18.364M6.343 19.071L4.93 17.657M7 12H3M3 13V11M8.464 8.464L5.636 5.636M4.929 6.343L6.343 4.93" stroke="#9CA3AF" stroke-width="1.5" stroke-linecap="round" stroke-linejoin="round"/>
</svg>
