<svg width="17" height="20" viewBox="0 0 17 20" fill="none" xmlns="http://www.w3.org/2000/svg">
<g clip-path="url(#clip0_0_348)">
<path d="M14.4196 1.55691C13.4946 0.505126 11.8224 0.0541992 9.6832 0.0541992H3.4746C3.26295 0.054207 3.05824 0.129533 2.89728 0.266634C2.73632 0.403736 2.62966 0.593619 2.59649 0.802146L0.0113472 17.1576C-0.0400371 17.4801 0.210312 17.7721 0.538002 17.7721H4.37097L5.3336 11.6814L5.30372 11.8721C5.3723 11.4416 5.74142 11.124 6.17852 11.124H7.99993C11.5781 11.124 14.3799 9.6742 15.1983 5.48023C15.2226 5.35619 15.2436 5.23546 15.2618 5.11751C15.1585 5.06294 15.1585 5.06294 15.2618 5.11751C15.5055 3.56738 15.2602 2.51221 14.4196 1.55691Z" fill="#27346A"/>
<path d="M6.80024 4.5591C6.90503 4.50933 7.01964 4.48353 7.1357 4.4836H12.0031C12.5795 4.4836 13.1171 4.52102 13.6084 4.59989C13.7459 4.62176 13.8826 4.64786 14.0185 4.67817C14.211 4.72056 14.4013 4.77243 14.5887 4.8336C14.8303 4.91407 15.0552 5.00778 15.2619 5.11751C15.5055 3.56678 15.2602 2.51221 14.4196 1.55691C13.4941 0.505126 11.8224 0.0541992 9.6832 0.0541992H3.47407C3.03691 0.0541992 2.665 0.371683 2.59649 0.802146L0.0113475 17.157C-0.0400367 17.48 0.210312 17.7717 0.537472 17.7717H4.37097L6.36812 5.13791C6.38776 5.01373 6.43735 4.89617 6.51262 4.79534C6.58789 4.69451 6.6866 4.61344 6.80024 4.5591Z" fill="#27346A"/>
<path d="M15.1983 5.4799C14.3798 9.67328 11.5781 11.1237 7.99988 11.1237H6.17793C5.74083 11.1237 5.37165 11.4412 5.30374 11.8718L4.10617 19.4449C4.06142 19.7272 4.28023 19.983 4.5665 19.983H7.7976C7.98268 19.9829 8.16168 19.917 8.3024 19.797C8.44311 19.6771 8.53631 19.511 8.56524 19.3286L8.59671 19.1644L9.20568 15.3143L9.24492 15.1016C9.27384 14.9192 9.36703 14.7531 9.50773 14.6332C9.64844 14.5132 9.82742 14.4473 10.0125 14.4473H10.4961C13.6261 14.4473 16.0769 13.1788 16.7931 9.51017C17.092 7.97706 16.9373 6.69706 16.1465 5.79798C15.9067 5.52566 15.6088 5.30076 15.2618 5.11719C15.243 5.23573 15.2226 5.35586 15.1983 5.4799Z" fill="#2790C3"/>
<path d="M14.4052 4.77671C14.2776 4.73954 14.1488 4.70663 14.019 4.67804C13.8831 4.64822 13.7463 4.6223 13.6089 4.60029C13.1171 4.52088 12.5799 4.4834 12.003 4.4834H7.13617C7.02002 4.48314 6.90533 4.50915 6.80071 4.55949C6.68695 4.61367 6.58813 4.69469 6.51282 4.79555C6.43752 4.8964 6.38799 5.01405 6.36853 5.1383L5.33407 11.6812L5.3042 11.8719C5.37225 11.4414 5.74136 11.1239 6.17853 11.1239H8.00048C11.5787 11.1239 14.3804 9.67406 15.1988 5.48009C15.2231 5.35605 15.2436 5.23585 15.2624 5.11737C15.0551 5.00824 14.8308 4.91393 14.5892 4.834C14.5282 4.81384 14.4669 4.79474 14.4053 4.77671" fill="#1F264F"/>
</g>
<defs>
<clipPath id="clip0_0_348">
<rect width="17" height="20" fill="white"/>
</clipPath>
</defs>
</svg>
