<svg width="14" height="14" viewBox="0 0 14 14" fill="none" xmlns="http://www.w3.org/2000/svg">
<path d="M1.84937 4.33984L7.00019 7.32067L12.116 4.35733" stroke="#9CA3AF" stroke-linecap="round" stroke-linejoin="round"/>
<path d="M7.00024 12.6058V7.31494" stroke="#9CA3AF" stroke-linecap="round" stroke-linejoin="round"/>
<path d="M5.79261 1.4465L2.67761 3.17902C1.97178 3.56986 1.39429 4.54984 1.39429 5.35484V8.65069C1.39429 9.45569 1.97178 10.4357 2.67761 10.8265L5.79261 12.559C6.45761 12.9265 7.54844 12.9265 8.21344 12.559L11.3285 10.8265C12.0343 10.4357 12.6118 9.45569 12.6118 8.65069V5.35484C12.6118 4.54984 12.0343 3.56986 11.3285 3.17902L8.21344 1.4465C7.5426 1.07317 6.45761 1.07317 5.79261 1.4465Z" stroke="#9CA3AF" stroke-linecap="round" stroke-linejoin="round"/>
<path d="M9.91669 7.72328V5.58829L4.38086 2.3916" stroke="#9CA3AF" stroke-linecap="round" stroke-linejoin="round"/>
</svg>
