<svg width="20" height="15" viewBox="0 0 20 15" fill="none" xmlns="http://www.w3.org/2000/svg">
<mask id="mask0_26_26737" style="mask-type:alpha" maskUnits="userSpaceOnUse" x="0" y="0" width="20" height="15">
<rect width="20" height="15" fill="white"/>
</mask>
<g mask="url(#mask0_26_26737)">
<path fill-rule="evenodd" clip-rule="evenodd" d="M0 0H20V15H0V0Z" fill="#E31D1C"/>
<path fill-rule="evenodd" clip-rule="evenodd" d="M4.44621 6.09805L2.01289 8.00519L2.94206 5.12106L1.31934 3.62136L3.51659 3.54027L4.44621 1.21875L5.37582 3.54027H7.56934L5.95035 5.12106L6.68788 8.00519L4.44621 6.09805Z" fill="#FECA00"/>
<path fill-rule="evenodd" clip-rule="evenodd" d="M9.38531 3.8578L8.36423 4.47422L8.59713 3.27133L7.74683 2.37109L8.89819 2.32242L9.38531 1.19922L9.87242 2.32242H11.0218L10.1735 3.27133L10.4289 4.47422L9.38531 3.8578Z" fill="#FECA00"/>
<path fill-rule="evenodd" clip-rule="evenodd" d="M10.6353 6.3578L9.61423 6.97422L9.84713 5.77133L8.99683 4.87109L10.1482 4.82242L10.6353 3.69922L11.1224 4.82242H12.2718L11.4235 5.77133L11.6789 6.97422L10.6353 6.3578Z" fill="#FECA00"/>
<path fill-rule="evenodd" clip-rule="evenodd" d="M9.38531 8.8578L8.36423 9.47422L8.59713 8.27133L7.74683 7.37109L8.89819 7.32242L9.38531 6.19922L9.87242 7.32242H11.0218L10.1735 8.27133L10.4289 9.47422L9.38531 8.8578Z" fill="#FECA00"/>
<path fill-rule="evenodd" clip-rule="evenodd" d="M6.88531 10.1078L5.86423 10.7242L6.09713 9.52133L5.24683 8.62109L6.39819 8.57242L6.88531 7.44922L7.37242 8.57242H8.52183L7.67348 9.52133L7.92888 10.7242L6.88531 10.1078Z" fill="#FECA00"/>
</g>
</svg>
