<svg width="20" height="20" viewBox="0 0 20 20" fill="none" xmlns="http://www.w3.org/2000/svg">
<path d="M10 11.666C11.3807 11.666 12.5 10.5467 12.5 9.16602C12.5 7.7853 11.3807 6.66602 10 6.66602C8.61929 6.66602 7.5 7.7853 7.5 9.16602C7.5 10.5467 8.61929 11.666 10 11.666Z" stroke="#FAD998" stroke-width="1.2" stroke-linecap="round" stroke-linejoin="round"/>
<path d="M14.7141 13.8806L11.1783 17.4164C10.8658 17.7286 10.4421 17.904 10.0004 17.904C9.55866 17.904 9.13499 17.7286 8.82248 17.4164L5.28582 13.8806C4.3535 12.9482 3.7186 11.7603 3.46139 10.4671C3.20418 9.17395 3.33622 7.83352 3.84082 6.61536C4.34541 5.39721 5.1999 4.35604 6.29622 3.62351C7.39254 2.89098 8.68146 2.5 9.99998 2.5C11.3185 2.5 12.6074 2.89098 13.7037 3.62351C14.8001 4.35604 15.6546 5.39721 16.1591 6.61536C16.6637 7.83352 16.7958 9.17395 16.5386 10.4671C16.2814 11.7603 15.6465 12.9482 14.7141 13.8806V13.8806Z" stroke="#FAD998" stroke-width="1.2" stroke-linecap="round" stroke-linejoin="round"/>
</svg>
