<svg width="20" height="20" viewBox="0 0 20 20" fill="none" xmlns="http://www.w3.org/2000/svg">
<path d="M14.9999 3.33325H4.99992C4.07944 3.33325 3.33325 4.07944 3.33325 4.99992V6.66659C3.33325 7.58706 4.07944 8.33325 4.99992 8.33325H14.9999C15.9204 8.33325 16.6666 7.58706 16.6666 6.66659V4.99992C16.6666 4.07944 15.9204 3.33325 14.9999 3.33325Z" stroke="#111827" stroke-width="1.5" stroke-linecap="round" stroke-linejoin="round"/>
<path d="M14.9999 11.6665H4.99992C4.07944 11.6665 3.33325 12.4127 3.33325 13.3332V14.9998C3.33325 15.9203 4.07944 16.6665 4.99992 16.6665H14.9999C15.9204 16.6665 16.6666 15.9203 16.6666 14.9998V13.3332C16.6666 12.4127 15.9204 11.6665 14.9999 11.6665Z" stroke="#111827" stroke-width="1.5" stroke-linecap="round" stroke-linejoin="round"/>
</svg>
